<svg width="36" height="36" viewBox="0 0 36 36" fill="none" xmlns="http://www.w3.org/2000/svg">
<path fill-rule="evenodd" clip-rule="evenodd" d="M13.6775 35.0833C9.98565 34.0978 6.70312 31.963 4.30507 28.988C1.90703 26.013 0.51787 22.3521 0.338663 18.5352C0.159455 14.7182 1.1995 10.9433 3.30826 7.75667C5.41702 4.57008 8.48509 2.13719 12.0684 0.81012C9.37994 3.03366 7.39619 5.99111 6.35883 9.32215C5.32146 12.6532 5.27527 16.214 6.22587 19.5709C6.59426 18.5126 7.25884 17.5824 8.14057 16.8909C9.0223 16.1994 10.0841 15.7757 11.1997 15.6701C12.3152 15.5645 13.4376 15.7816 14.4334 16.2955C15.4292 16.8093 16.2565 17.5983 16.8168 18.5687C17.3772 19.5391 17.647 20.65 17.5943 21.7693C17.5416 22.8886 17.1685 23.9692 16.5195 24.8827C15.8704 25.7961 14.9727 26.5039 13.933 26.9219C12.8933 27.3399 11.7555 27.4505 10.6548 27.2406C13.0912 29.7347 16.1979 31.4696 19.5993 32.2355C23.0008 33.0015 26.5513 32.7657 29.8216 31.5567C27.6096 33.3943 24.9887 34.6737 22.1793 35.2874C19.3699 35.9011 16.4542 35.8311 13.6775 35.0833Z" fill="#6A24FF"/>
<path fill-rule="evenodd" clip-rule="evenodd" d="M27.9271 12.1568C28.8324 13.7202 29.3202 15.4903 29.3434 17.2968C29.3667 19.1033 28.9246 20.8854 28.0598 22.4716C27.1949 24.0578 25.9364 25.3947 24.4053 26.3537C22.8742 27.3127 21.122 27.8616 19.3174 27.9474C20.0483 28.2694 20.8023 28.5359 21.5732 28.7445C33.2282 31.865 38.1985 17.7136 33.2132 9.0814C28.2279 0.449203 13.4975 -2.3104 10.3694 9.33706C10.1636 10.1146 10.0153 10.9063 9.92578 11.7056C10.9023 10.1814 12.2553 8.93479 13.8542 8.0861C15.4532 7.23741 17.2439 6.81537 19.0535 6.86072C20.8631 6.90608 22.6305 7.4173 24.1849 8.34502C25.7393 9.27273 27.0282 10.5856 27.9271 12.1568Z" fill="#6A24FF"/>
</svg>
