<svg width="128" height="22" viewBox="0 0 128 22" fill="none" xmlns="http://www.w3.org/2000/svg">
<path fill-rule="evenodd" clip-rule="evenodd" d="M7.52709 16.9048C8.88099 16.8918 10.2046 16.5103 11.3505 15.8027C12.4963 15.0952 13.4194 14.0894 14.0168 12.8975L11.5822 11.652C11.2377 12.4406 10.6633 13.1117 9.93118 13.5809C9.19905 14.0502 8.34186 14.2966 7.46735 14.2894C6.25089 14.2349 5.10318 13.7205 4.26479 12.8542C3.4264 11.9878 2.96244 10.8367 2.97017 9.64217C2.97789 8.44762 3.45671 7.30238 4.30624 6.44653C5.15576 5.59068 6.31003 5.09066 7.52709 5.05129C8.34577 5.03666 9.15169 5.25156 9.85017 5.67072C10.5487 6.08989 11.1107 6.69591 11.4702 7.41759L13.8002 5.95239C12.9717 4.60339 11.7153 3.558 10.2234 2.97635C8.73152 2.39469 7.08636 2.30884 5.53997 2.73194C3.99357 3.15503 2.63119 4.06374 1.6615 5.3189C0.691814 6.57405 0.16829 8.10644 0.171116 9.68134C0.139993 10.6372 0.308983 11.5892 0.667641 12.4785C1.0263 13.3678 1.56701 14.1756 2.25638 14.8518C2.94575 15.5281 3.76914 16.0585 4.67568 16.4104C5.58223 16.7622 6.55268 16.928 7.52709 16.8974V16.9048ZM14.9951 16.707H17.6089V10.729C17.6089 8.78756 18.4154 7.9817 19.9613 7.9817C20.5257 7.95873 21.0828 8.1127 21.552 8.42126L22.5527 5.95972C21.932 5.6297 21.2347 5.46311 20.5289 5.4762C19.9227 5.42283 19.3147 5.55562 18.7889 5.85619C18.263 6.15675 17.8455 6.61023 17.5939 7.15386V5.45423H14.9652V16.707H14.9951ZM28.6242 16.9414C29.8058 16.9414 30.9609 16.5977 31.9434 15.9537C32.9259 15.3097 33.6916 14.3944 34.1438 13.3234C34.596 12.2525 34.7143 11.0741 34.4838 9.93721C34.2533 8.80033 33.6842 7.75603 32.8487 6.93639C32.0132 6.11674 30.9486 5.55854 29.7897 5.3324C28.6308 5.10626 27.4296 5.22233 26.3379 5.66592C25.2462 6.10951 24.3131 6.8607 23.6566 7.8245C23.0002 8.78831 22.6498 9.92144 22.6498 11.0806C22.6498 12.635 23.2792 14.1257 24.3996 15.2248C25.5201 16.3239 27.0397 16.9414 28.6242 16.9414ZM28.6242 14.4945C27.9297 14.5238 27.2421 14.3483 26.6502 13.9908C26.0582 13.6332 25.589 13.11 25.303 12.4884C25.017 11.8669 24.9272 11.1755 25.0454 10.5035C25.1635 9.8315 25.4841 9.2096 25.9659 8.71795C26.4476 8.22631 27.0684 7.88745 27.7482 7.74507C28.4281 7.60268 29.1358 7.6633 29.7802 7.91909C30.4246 8.17488 30.9761 8.61413 31.3637 9.18022C31.7513 9.74632 31.9572 10.4133 31.9549 11.0953C31.9668 11.5338 31.8898 11.9702 31.7283 12.3793C31.5668 12.7884 31.324 13.1619 31.0142 13.4782C30.7043 13.7944 30.3334 14.0471 29.9231 14.2216C29.5128 14.3961 29.0713 14.4889 28.6242 14.4945ZM38.2504 16.6923L34.4119 5.45423H37.1153L39.6469 13.2125L42.5296 5.45423H45.1583L47.9812 13.2271L50.6025 5.45423H53.291L49.2732 16.707H46.7341L43.829 8.91943L40.8418 16.707L38.2504 16.6923ZM58.8397 16.9268C59.5523 16.9421 60.2591 16.7976 60.9062 16.5043C61.5533 16.2111 62.1236 15.7767 62.5737 15.2344V16.6996H65.2248V2.47254H62.5587V6.78755C62.0998 6.28169 61.5341 5.88004 60.9008 5.61055C60.2676 5.34106 59.582 5.21021 58.8919 5.22712C58.1195 5.22408 57.3546 5.37573 56.644 5.67279C55.9334 5.96986 55.2922 6.40608 54.7594 6.95475C54.2267 7.50342 53.8137 8.15299 53.5458 8.86369C53.2779 9.57438 53.1607 10.3312 53.2013 11.0879C53.1693 11.8395 53.2913 12.5898 53.56 13.2944C53.8287 13.999 54.2387 14.6435 54.7658 15.19C55.2929 15.7364 55.9263 16.1736 56.6286 16.4757C57.3309 16.7777 58.0878 16.9386 58.8546 16.9487L58.8397 16.9268ZM59.2653 14.5385C58.3245 14.5385 57.4223 14.1719 56.757 13.5193C56.0918 12.8667 55.7181 11.9815 55.7181 11.0586C55.7181 10.1357 56.0918 9.2506 56.757 8.598C57.4223 7.9454 58.3245 7.57876 59.2653 7.57876C60.2061 7.57876 61.1084 7.9454 61.7737 8.598C62.4389 9.2506 62.8126 10.1357 62.8126 11.0586C62.8126 11.9815 62.4389 12.8667 61.7737 13.5193C61.1084 14.1719 60.2061 14.5385 59.2653 14.5385ZM66.2853 7.76925H68.2269V16.6923H70.9154V7.79855H73.2678V5.45423H70.9154C70.9154 3.82053 71.1544 3.34433 73.2678 3.34433V0.934082H73.0363C69.5413 0.934082 68.2269 2.2088 68.2269 5.43957H66.2853V7.79855V7.76925ZM84.6192 5.43957H81.9755V11.6154C81.9755 13.6007 80.8927 14.6777 79.4289 14.6777C77.7561 14.6777 76.972 13.6007 76.972 11.8498V5.45423H74.2909V12.1282C74.2909 15.1905 75.9563 16.9414 78.6971 16.9414C79.3306 16.967 79.9611 16.8418 80.5346 16.5765C81.1081 16.3111 81.6076 15.9135 81.9904 15.4176V16.707H84.6192V5.45423V5.43957ZM86.2472 16.6923H88.8983V10.5238C88.8983 8.53847 90.0708 7.46155 91.5793 7.46155C93.3045 7.46155 94.1707 8.53847 94.1707 10.2894V16.6923H96.8592V10.0183C96.8592 6.96338 95.1939 5.21247 92.3112 5.21247C91.6495 5.19581 90.9932 5.33318 90.3961 5.61333C89.799 5.89348 89.278 6.30843 88.8759 6.82419V5.45423H86.2472V16.707V16.6923ZM103.663 16.9268C104.375 16.9399 105.081 16.7945 105.728 16.5014C106.374 16.2082 106.945 15.7751 107.397 15.2344V16.6996H110.04V2.47254H107.374V6.78755C106.916 6.2813 106.35 5.87938 105.717 5.60986C105.083 5.34033 104.398 5.20971 103.707 5.22712C102.935 5.22402 102.171 5.37569 101.46 5.67284C100.75 5.96998 100.109 6.40632 99.5773 6.95511C99.0451 7.5039 98.6329 8.15356 98.3658 8.86424C98.0987 9.57491 97.9825 10.3316 98.0242 11.0879C97.9912 11.8392 98.1122 12.5893 98.3801 13.2938C98.6479 13.9984 99.0572 14.643 99.5837 15.1896C100.11 15.7361 100.743 16.1734 101.445 16.4756C102.147 16.7777 102.904 16.9387 103.67 16.9487L103.663 16.9268ZM104.096 14.5385C103.155 14.5385 102.253 14.1719 101.587 13.5193C100.922 12.8667 100.548 11.9815 100.548 11.0586C100.548 10.1357 100.922 9.2506 101.587 8.598C102.253 7.9454 103.155 7.57876 104.096 7.57876C105.037 7.57876 105.939 7.9454 106.604 8.598C107.269 9.2506 107.643 10.1357 107.643 11.0586C107.643 11.9815 107.269 12.8667 106.604 13.5193C105.939 14.1719 105.037 14.5385 104.096 14.5385ZM111.638 16.6923H114.312V2.47254H111.638V16.707V16.6923ZM117.486 21.8718H120.174L127.015 5.43957H124.229L121.242 13.0147L118.046 5.43957H115.223L119.928 16.1209L117.486 21.8718Z" fill="#2C3A49"/>
</svg>
