<svg width="32" height="32" viewBox="0 0 32 32" fill="none" xmlns="http://www.w3.org/2000/svg">
<path d="M24 16.0001C24 16.7334 24.6 17.3334 25.3333 17.3334H28C28.7333 17.3334 29.3333 16.7334 29.3333 16.0001C29.3333 15.2667 28.7333 14.6667 28 14.6667H25.3333C24.6 14.6667 24 15.2667 24 16.0001Z" fill="white"/>
<path d="M22.1207 22.4268C21.6807 23.0134 21.8007 23.8268 22.3874 24.2534C23.094 24.7734 23.8407 25.3334 24.5474 25.8668C25.134 26.3068 25.9607 26.1868 26.3874 25.6001C26.3874 25.5868 26.4007 25.5868 26.4007 25.5734C26.8407 24.9868 26.7207 24.1601 26.134 23.7334C25.4274 23.2001 24.6807 22.6401 23.9874 22.1201C23.4007 21.6801 22.574 21.8134 22.134 22.4001C22.134 22.4134 22.1207 22.4268 22.1207 22.4268Z" fill="white"/>
<path d="M26.4118 6.41331C26.4118 6.39998 26.3985 6.39998 26.3985 6.38665C25.9585 5.79998 25.1318 5.67998 24.5585 6.11998C23.8518 6.65331 23.0918 7.21331 22.3985 7.74665C21.8118 8.18665 21.7051 9.01331 22.1451 9.58665C22.1451 9.59998 22.1585 9.59998 22.1585 9.61331C22.5985 10.2 23.4118 10.32 23.9985 9.87998C24.7051 9.35998 25.4518 8.78665 26.1585 8.25331C26.7318 7.82665 26.8385 6.99998 26.4118 6.41331Z" fill="white"/>
<path d="M10.668 12H5.33464C3.86797 12 2.66797 13.2 2.66797 14.6667V17.3333C2.66797 18.8 3.86797 20 5.33464 20H6.66797V24C6.66797 24.7333 7.26797 25.3333 8.0013 25.3333C8.73464 25.3333 9.33464 24.7333 9.33464 24V20H10.668L17.3346 24V8L10.668 12Z" fill="white"/>
<path d="M20.668 16.0001C20.668 14.2268 19.8946 12.6268 18.668 11.5334V20.4534C19.8946 19.3734 20.668 17.7734 20.668 16.0001Z" fill="white"/>
</svg>
