<svg width="30" height="22" viewBox="0 0 30 22" fill="none" xmlns="http://www.w3.org/2000/svg">
<path d="M29.6654 5.66658V18.9999C29.6654 20.4666 28.4654 21.6666 26.9987 21.6666H5.66536C4.93203 21.6666 4.33203 21.0666 4.33203 20.3333C4.33203 19.5999 4.93203 18.9999 5.66536 18.9999H26.9987V5.66658C26.9987 4.93325 27.5987 4.33325 28.332 4.33325C29.0654 4.33325 29.6654 4.93325 29.6654 5.66658ZM4.33203 16.3333C2.1187 16.3333 0.332031 14.5466 0.332031 12.3333V4.33325C0.332031 2.11992 2.1187 0.333252 4.33203 0.333252H20.332C22.5454 0.333252 24.332 2.11992 24.332 4.33325V13.6666C24.332 15.1333 23.132 16.3333 21.6654 16.3333H4.33203ZM8.33203 8.33325C8.33203 10.5466 10.1187 12.3333 12.332 12.3333C14.5454 12.3333 16.332 10.5466 16.332 8.33325C16.332 6.11992 14.5454 4.33325 12.332 4.33325C10.1187 4.33325 8.33203 6.11992 8.33203 8.33325Z" fill="white"/>
</svg>
