<svg width="28" height="28" viewBox="0 0 28 28" fill="none" xmlns="http://www.w3.org/2000/svg">
<path d="M22.4265 5.5734C21.9465 6.0534 21.9065 6.80007 22.3332 7.3334C24.2665 9.76007 25.2799 13.0801 24.3732 16.5601C23.3199 20.6267 20.1332 23.6667 16.0932 24.4801C9.2932 25.8267 3.3332 20.5734 3.3332 14.0001C3.3332 8.56007 7.39987 4.08007 12.6665 3.42674V6.12007C8.4932 6.82674 5.42653 10.7334 6.0932 15.2267C6.6132 18.7067 9.50653 21.5067 12.9999 21.9334C17.8532 22.5334 21.9999 18.7467 21.9999 14.0001C21.9999 12.3334 21.4932 10.8001 20.6265 9.52007C20.1732 8.8534 19.1999 8.8134 18.6265 9.3734L18.6132 9.38673C18.1599 9.84007 18.1199 10.5467 18.4665 11.0801C19.2665 12.3067 19.5865 13.8801 19.1199 15.5067C18.5999 17.3334 17.0665 18.7867 15.1999 19.2001C11.7332 19.9601 8.66653 17.3467 8.66653 14.0001C8.66653 11.5201 10.3732 9.4534 12.6665 8.8534V11.7067C11.8665 12.1734 11.3332 13.0134 11.3332 14.0001C11.3332 15.4667 12.5332 16.6667 13.9999 16.6667C15.4665 16.6667 16.6665 15.4667 16.6665 14.0001C16.6665 13.0134 16.1332 12.1601 15.3332 11.7067V1.6134C15.3332 1.0934 14.9065 0.666735 14.3865 0.666735C7.23987 0.400068 1.07987 6.08007 0.693199 13.2001C0.213199 21.9334 7.90653 28.9601 16.7065 27.0667C21.8799 25.9601 25.8799 22.0001 27.0399 16.8401C27.9865 12.6267 26.7732 8.62674 24.4132 5.68007C23.9199 5.0534 22.9865 5.0134 22.4265 5.5734Z" fill="white"/>
</svg>
