<svg width="180" height="44" viewBox="0 0 180 44" fill="none" xmlns="http://www.w3.org/2000/svg">
<g clip-path="url(#clip0_6408_40084)">
<path fill-rule="evenodd" clip-rule="evenodd" d="M8.73145 43.1754C10.3328 36.6651 11.9102 30.1222 13.4635 23.5468L15.0849 31.8474C24.5014 25.2432 34.793 20.0317 45.6514 16.3691C32.3953 23.8702 20.0109 32.862 8.73145 43.1754Z" fill="white"/>
<path fill-rule="evenodd" clip-rule="evenodd" d="M28.7649 15.4295L40.2108 16.2962L33.0767 19.3357L26.3268 18.8352L22.5555 9.46032L18.7843 18.8352L8.85167 19.5798L11.2778 21.6672L10.341 25.549L0 16.6502L16.3582 15.4295L22.5555 0L28.7649 15.4295Z" fill="#18A87C"/>
<path fill-rule="evenodd" clip-rule="evenodd" d="M36.2354 43.1879L32.8365 33.9717L28.6328 37.0966L36.2354 43.1879Z" fill="#18A87C"/>
<path fill-rule="evenodd" clip-rule="evenodd" d="M27.3955 30.8838L33.9892 33.5693L27.912 38.0736L27.3955 30.8838Z" fill="#18A87C"/>
<path fill-rule="evenodd" clip-rule="evenodd" d="M52.209 40.2213V20.5316C55.4742 19.1565 58.9677 18.4274 62.5019 18.3832V22.0453C60.3281 22.0815 58.1665 22.3848 56.0643 22.9486V40.2579L52.209 40.2213ZM65.4204 29.7234C65.4204 22.1714 68.5271 18.3914 74.7405 18.3832C76.0012 18.328 77.2587 18.5515 78.4262 19.0383C79.5936 19.5251 80.6432 20.2637 81.5024 21.203C83.2592 23.2986 84.1614 25.9973 84.0246 28.7469C84.0246 29.7722 84.0246 30.7488 83.9045 31.6887H69.3839C69.8523 35.3508 71.786 37.2428 75.3891 37.2428C77.9136 37.3195 80.4177 36.7619 82.6794 35.6193V39.2081C80.3336 40.1692 77.8219 40.6424 75.293 40.5997H75.1729C74.0123 40.6079 72.8562 40.4518 71.7379 40.1359C70.6399 39.7922 69.608 39.2596 68.6873 38.5612C67.5789 37.7018 66.7436 36.5302 66.2852 35.1921C65.6791 33.4363 65.3902 31.5836 65.4324 29.7234H65.4204ZM69.2998 28.1609H80.1092C80.0655 27.4657 79.9446 26.7778 79.7489 26.1102C79.5485 25.4188 79.2662 24.7547 78.9081 24.1327C78.5214 23.4445 77.9509 22.8817 77.2627 22.5091C76.467 22.1004 75.5837 21.8991 74.6925 21.9232C73.9783 21.8612 73.2594 21.9531 72.5826 22.1929C71.9058 22.4327 71.2865 22.815 70.7651 23.3148C69.7663 24.7393 69.2366 26.4484 69.2518 28.1976L69.2998 28.1609ZM86.3546 18.7372H90.4862L96.4914 35.485L102.497 18.7372H106.628L98.413 40.2213H94.4376L86.4026 18.7372H86.3546ZM109.499 29.7234C109.499 22.1714 112.605 18.3914 118.819 18.3832C120.079 18.328 121.337 18.5515 122.504 19.0383C123.672 19.5251 124.721 20.2637 125.581 21.203C127.337 23.2986 128.24 25.9973 128.103 28.7469C128.103 29.7722 128.103 30.7488 127.983 31.6887H113.462C113.93 35.3508 115.924 37.2428 119.467 37.2428C121.992 37.3195 124.496 36.7619 126.758 35.6193V39.2081C124.416 40.1679 121.908 40.6411 119.383 40.5997H119.251C118.09 40.6079 116.934 40.4518 115.816 40.1359C114.718 39.7922 113.686 39.2596 112.765 38.5612C111.675 37.6973 110.86 36.5252 110.423 35.1921C109.807 33.4387 109.514 31.5848 109.559 29.7234H109.499ZM113.378 28.1609H124.187C124.144 27.4657 124.023 26.7778 123.827 26.1102C123.627 25.4188 123.344 24.7547 122.986 24.1327C122.6 23.4445 122.029 22.8817 121.341 22.5091C120.545 22.1004 119.662 21.8991 118.771 21.9232C118.058 21.8606 117.341 21.9523 116.666 22.1922C115.991 22.4321 115.374 22.8147 114.855 23.3148C113.847 24.7352 113.312 26.4462 113.33 28.1976L113.378 28.1609ZM130.973 18.7372H134.913L139.993 34.6062L144.653 18.7372H148.256L152.976 34.6062L157.396 18.7372H161.336L154.67 40.2213H151.067L146.262 24.7918L141.458 40.2213H137.567L130.913 18.7372H130.973ZM165.371 24.8407C165.354 23.9939 165.511 23.1529 165.832 22.3711C166.152 21.5893 166.629 20.8839 167.233 20.2997C168.821 18.9423 170.869 18.2718 172.938 18.4321C174.903 18.4471 176.836 18.9322 178.583 19.8481V23.2416C176.968 22.4593 175.206 22.0428 173.418 22.0209C170.62 22.0209 169.226 22.9364 169.226 24.7674C169.252 25.0982 169.37 25.4147 169.565 25.6804C169.761 25.9461 170.027 26.1501 170.331 26.2689C171.191 26.7098 172.092 27.0615 173.022 27.3187C174.09 27.6203 175.14 27.983 176.168 28.4051C177.244 28.8527 178.176 29.5968 178.859 30.5535C179.628 31.6392 180.024 32.9516 179.988 34.2888C179.996 35.1327 179.829 35.969 179.498 36.743C179.167 37.517 178.679 38.2114 178.066 38.7809C176.793 40.0423 174.815 40.6689 172.133 40.6607C170.009 40.6948 167.912 40.1736 166.044 39.1471V35.5583C167.825 36.5933 169.841 37.1362 171.893 37.133H171.965C173.047 37.1999 174.125 36.9409 175.063 36.3883C175.387 36.1902 175.655 35.9111 175.842 35.5778C176.029 35.2444 176.129 34.8679 176.132 34.4841C176.143 34.0621 176.045 33.6446 175.85 33.2724C175.654 32.9001 175.366 32.5858 175.015 32.3601C174.197 31.7938 173.286 31.3805 172.325 31.1394C171.268 30.8464 170.199 30.5046 169.154 30.1384C168.112 29.7717 167.184 29.1316 166.464 28.283C165.676 27.3039 165.293 26.0523 165.395 24.7918L165.371 24.8407Z" fill="#18A87C"/>
</g>
<defs>
<clipPath id="clip0_6408_40084">
<rect width="180" height="43.1757" fill="white"/>
</clipPath>
</defs>
</svg>
