<svg width="14" height="13" viewBox="0 0 14 13" fill="none" xmlns="http://www.w3.org/2000/svg">
<path d="M9.20205 0.833162C8.15022 0.976833 7.16335 1.84871 7.14342 2.91047C7.13861 3.19026 7.19693 3.4696 7.1698 3.74801C7.14295 4.02599 7.00011 4.32159 6.73521 4.4107C6.52447 4.48196 6.29468 4.40613 6.08809 4.32309C4.97655 3.87396 3.96279 3.18566 3.13504 2.31868C2.92093 2.09442 2.71564 1.85459 2.45576 1.68454C2.19585 1.51487 1.86449 1.42165 1.57099 1.52234C1.27366 1.6248 1.06591 1.91197 0.991409 2.21734C0.916508 2.5232 0.955928 2.84491 1.02738 3.15154C1.21964 3.98064 1.64327 4.75449 2.23788 5.3631C1.94653 5.45426 1.63328 5.4752 1.33215 5.42746C1.09523 5.39073 0.89827 5.59076 0.929 5.82918C0.983901 6.2602 1.22503 6.6759 1.54365 6.98271C1.98483 7.40834 2.5564 7.6657 3.11619 7.91559C2.88251 7.91514 2.64081 7.91661 2.42685 8.01177C2.21375 8.10736 2.03571 8.32384 2.06198 8.55584C2.08119 8.7338 2.21049 8.8781 2.34005 9.00224C2.76944 9.41646 3.26891 9.75881 3.80976 10.0112C3.72638 10.4919 3.17669 10.7459 2.68995 10.7703C2.20279 10.7948 1.70787 10.674 1.23021 10.7744C1.04459 10.8125 0.845363 10.9051 0.784999 11.0853C0.728217 11.2544 0.82038 11.4457 0.960837 11.5555C1.1013 11.6659 1.28015 11.7126 1.45443 11.7532C3.9456 12.3332 6.6656 12.1493 8.91771 10.9351C11.1699 9.7217 12.8754 7.40685 13.0573 4.85545C13.0971 4.30271 13.0885 3.6878 13.4626 3.2788C13.6501 3.07351 13.9349 2.91139 13.9617 2.6349C13.9932 2.30892 13.5112 2.08159 13.2793 2.31259C13.4139 2.11658 13.5541 1.87213 13.4568 1.65453C13.2615 1.22023 12.8147 1.53199 12.5322 1.61133C12.145 1.71963 11.9548 1.59895 11.6079 1.41279C10.8571 1.01151 10.0698 0.714728 9.20205 0.833162Z" fill="#434B57"/>
</svg>
