<svg width="15" height="12" viewBox="0 0 15 12" fill="none" xmlns="http://www.w3.org/2000/svg">
<path d="M9.70501 6.86438L8.36363 7.63874L7.02224 8.41311C6.40018 8.77278 5.62134 8.32352 5.62134 7.60419V6.05544V4.50735C5.62134 3.78802 6.40018 3.33876 7.02224 3.69843L8.36363 4.47215L9.70501 5.24652C10.3271 5.60619 10.3271 6.50535 9.70501 6.86438ZM12.67 0.81662H3.12332C1.84964 0.81662 0.816406 1.8489 0.816406 3.12309V8.98845C0.816406 10.2626 1.84964 11.2949 3.12332 11.2949H12.67C13.9442 11.2949 14.9765 10.2626 14.9765 8.98845V3.12309C14.9765 1.8489 13.9442 0.81662 12.67 0.81662Z" fill="#434B57"/>
</svg>
