<svg width="11" height="20" viewBox="0 0 11 20" fill="none" xmlns="http://www.w3.org/2000/svg">
<path d="M5.40888 1.25148C4.54318 1.69499 3.88318 2.49048 3.51442 3.39028C3.14573 4.29009 3.05447 5.2878 3.15072 6.25544C3.20199 6.7719 3.24519 7.41892 2.79445 7.67683C2.48074 7.85602 2.09022 7.73443 1.72902 7.73123C0.734565 7.72227 -0.0804421 8.76671 0.0366092 9.75483C0.153341 10.7423 1.05206 11.534 2.03653 11.6799C2.47446 11.7445 2.98523 11.7272 3.27398 12.0632C3.46943 12.2904 3.49695 12.6136 3.5102 12.9131C3.58194 14.4906 3.52946 16.0739 3.35398 17.6432C3.3152 17.9868 3.29145 18.3887 3.54821 18.6198C3.70891 18.7644 3.93815 18.7983 4.15318 18.8258C4.96889 18.9301 5.78435 19.0345 6.60006 19.1388C6.88555 19.1753 7.2113 19.2002 7.42505 19.0069C7.63055 18.8213 7.6468 18.5097 7.64802 18.2319C7.65877 16.2928 7.66875 14.353 7.6788 12.4139C7.68002 12.2379 7.68379 12.0517 7.77877 11.9039C7.94426 11.644 8.30124 11.614 8.60376 11.5589C9.48545 11.3989 10.2992 10.7359 10.4837 9.85914C10.6679 8.98174 10.0867 7.9693 9.20296 7.81954C8.73873 7.74083 8.21427 7.87586 7.82305 7.61283C7.36803 7.30757 7.35805 6.65351 7.39676 6.10697C7.44553 5.41132 7.59804 4.57103 8.25299 4.33232C8.84125 4.11729 9.52494 4.53648 10.1092 4.31121C10.7267 4.0725 10.8804 3.27765 10.8874 2.61527C10.9004 1.3974 10.5292 0.562235 9.27746 0.759348C7.95674 0.967339 6.66879 0.607029 5.40888 1.25148Z" fill="#434B57"/>
</svg>
