<svg width="32" height="32" viewBox="0 0 32 32" fill="none" xmlns="http://www.w3.org/2000/svg">
<path d="M22.666 9.33334H18.666C17.9327 9.33334 17.3327 9.93334 17.3327 10.6667C17.3327 11.4 17.9327 12 18.666 12H22.666C24.866 12 26.666 13.8 26.666 16C26.666 18.2 24.866 20 22.666 20H18.666C17.9327 20 17.3327 20.6 17.3327 21.3333C17.3327 22.0667 17.9327 22.6667 18.666 22.6667H22.666C26.346 22.6667 29.3327 19.68 29.3327 16C29.3327 12.32 26.346 9.33334 22.666 9.33334ZM10.666 16C10.666 16.7333 11.266 17.3333 11.9993 17.3333H19.9993C20.7327 17.3333 21.3327 16.7333 21.3327 16C21.3327 15.2667 20.7327 14.6667 19.9993 14.6667H11.9993C11.266 14.6667 10.666 15.2667 10.666 16ZM13.3327 20H9.33268C7.13268 20 5.33268 18.2 5.33268 16C5.33268 13.8 7.13268 12 9.33268 12H13.3327C14.066 12 14.666 11.4 14.666 10.6667C14.666 9.93334 14.066 9.33334 13.3327 9.33334H9.33268C5.65268 9.33334 2.66602 12.32 2.66602 16C2.66602 19.68 5.65268 22.6667 9.33268 22.6667H13.3327C14.066 22.6667 14.666 22.0667 14.666 21.3333C14.666 20.6 14.066 20 13.3327 20Z" fill="white"/>
</svg>
