<svg width="21" height="26" viewBox="0 0 21 26" fill="none" xmlns="http://www.w3.org/2000/svg">
<path d="M15.5634 0H0.915493C0.672725 0 0.439761 0.0978343 0.268109 0.271939C0.0964563 0.446043 0 0.682335 0 0.928571V21.3571C0.00143047 22.5881 0.484108 23.7681 1.34237 24.6384C2.20043 25.509 3.36384 25.9986 4.57746 26H19.2254C19.4681 26 19.7011 25.9022 19.8727 25.7281C20.0444 25.554 20.1408 25.3177 20.1408 25.0714V4.64286C20.1394 3.41189 19.6567 2.23186 18.7985 1.36155C17.9404 0.491029 16.777 0.00143265 15.5634 0ZM14.6479 19.5H5.49296C5.16579 19.5 4.86357 19.323 4.70009 19.0357C4.53661 18.7484 4.53661 18.3944 4.70009 18.1071C4.86357 17.8199 5.1658 17.6429 5.49296 17.6429H14.6479C14.9751 17.6429 15.2773 17.8199 15.4408 18.1071C15.6042 18.3944 15.6042 18.7484 15.4408 19.0357C15.2773 19.323 14.975 19.5 14.6479 19.5ZM14.6479 13.9286H5.49296C5.16579 13.9286 4.86357 13.7516 4.70009 13.4643C4.53661 13.177 4.53661 12.823 4.70009 12.5357C4.86357 12.2484 5.1658 12.0714 5.49296 12.0714H14.6479C14.9751 12.0714 15.2773 12.2484 15.4408 12.5357C15.6042 12.823 15.6042 13.177 15.4408 13.4643C15.2773 13.7516 14.975 13.9286 14.6479 13.9286ZM14.6479 8.35714H5.49296C5.16579 8.35714 4.86357 8.18014 4.70009 7.89286C4.53661 7.60558 4.53661 7.25156 4.70009 6.96429C4.86357 6.67701 5.1658 6.5 5.49296 6.5H14.6479C14.9751 6.5 15.2773 6.67701 15.4408 6.96429C15.6042 7.25156 15.6042 7.60558 15.4408 7.89286C15.2773 8.18013 14.975 8.35714 14.6479 8.35714Z" fill="white"/>
</svg>
