<svg width="32" height="32" viewBox="0 0 32 32" fill="none" xmlns="http://www.w3.org/2000/svg">
<path d="M18.8927 18.28L20.7594 15.0533C20.8794 14.8533 20.826 14.6 20.6527 14.4533L18.6794 12.9067C18.7194 12.6133 18.746 12.3067 18.746 12C18.746 11.6933 18.7194 11.3867 18.6794 11.08L20.6527 9.53333C20.826 9.38666 20.8794 9.13333 20.7594 8.93333L18.8927 5.70666C18.7727 5.50666 18.5327 5.42666 18.3194 5.50666L15.9994 6.44C15.5194 6.06666 14.9994 5.76 14.426 5.52L14.0794 3.05333C14.0394 2.84 13.8394 2.66666 13.6127 2.66666H9.87935C9.65269 2.66666 9.45269 2.84 9.41269 3.06666L9.06602 5.53333C8.50602 5.77333 7.97269 6.08 7.49269 6.45333L5.17269 5.52C4.95935 5.44 4.71935 5.52 4.59935 5.72L2.73269 8.94666C2.61269 9.14666 2.66602 9.4 2.83935 9.54666L4.81269 11.0933C4.77269 11.3867 4.74602 11.6933 4.74602 12C4.74602 12.3067 4.77269 12.6133 4.81269 12.92L2.83935 14.4667C2.66602 14.6133 2.61269 14.8667 2.73269 15.0667L4.59935 18.2933C4.71935 18.4933 4.95935 18.5733 5.17269 18.4933L7.49269 17.56C7.97269 17.9333 8.49269 18.24 9.06602 18.48L9.41269 20.9467C9.45269 21.16 9.65269 21.3333 9.87935 21.3333H13.6127C13.8394 21.3333 14.0394 21.16 14.0794 20.9333L14.426 18.4667C14.986 18.2267 15.5194 17.92 15.9994 17.5467L18.3194 18.48C18.5327 18.56 18.7727 18.48 18.8927 18.28ZM11.746 14.6667C10.2794 14.6667 9.07935 13.4667 9.07935 12C9.07935 10.5333 10.2794 9.33333 11.746 9.33333C13.2127 9.33333 14.4127 10.5333 14.4127 12C14.4127 13.4667 13.2127 14.6667 11.746 14.6667Z" fill="white"/>
<path d="M29.227 24.8933L27.947 23.9067C27.9736 23.72 28.0003 23.52 28.0003 23.32C28.0003 23.12 27.987 22.92 27.947 22.7333L29.2136 21.7467C29.3203 21.6533 29.3603 21.4933 29.2803 21.36L28.0803 19.2933C28.0136 19.16 27.8536 19.12 27.707 19.16L26.227 19.76C25.9203 19.52 25.587 19.32 25.2136 19.1733L24.987 17.6C24.9736 17.44 24.8403 17.3333 24.707 17.3333H22.3203C22.1736 17.3333 22.0403 17.44 22.027 17.5867L21.8003 19.16C21.4403 19.32 21.0936 19.5067 20.787 19.7467L19.307 19.1467C19.1736 19.0933 19.0136 19.1467 18.9336 19.28L17.7336 21.3467C17.667 21.48 17.6803 21.64 17.8003 21.7333L19.067 22.72C19.0403 22.9067 19.027 23.1067 19.027 23.3067C19.027 23.5067 19.0403 23.7067 19.067 23.8933L17.8003 24.88C17.6936 24.9733 17.6536 25.1333 17.7336 25.2667L18.9336 27.3333C19.0003 27.4667 19.1603 27.5067 19.307 27.4667L20.787 26.8667C21.0936 27.1067 21.427 27.3067 21.8003 27.4533L22.027 29.0267C22.0536 29.1733 22.1736 29.28 22.3203 29.28H24.707C24.8536 29.28 24.987 29.1733 25.0003 29.0267L25.227 27.4533C25.587 27.2933 25.9336 27.1067 26.227 26.8667L27.7203 27.4667C27.8536 27.52 28.0136 27.4667 28.0936 27.3333L29.2936 25.2667C29.3736 25.1467 29.3336 24.9867 29.227 24.8933ZM23.507 25.1067C22.5203 25.1067 21.707 24.3067 21.707 23.3067C21.707 22.3067 22.507 21.5067 23.507 21.5067C24.507 21.5067 25.307 22.3067 25.307 23.3067C25.307 24.3067 24.4936 25.1067 23.507 25.1067Z" fill="white"/>
</svg>
