<svg width="26" height="30" viewBox="0 0 26 30" fill="none" xmlns="http://www.w3.org/2000/svg">
<path d="M17.9993 0.333374H3.33268C1.86602 0.333374 0.666016 1.53337 0.666016 3.00004V20.3334C0.666016 21.0667 1.26602 21.6667 1.99935 21.6667C2.73268 21.6667 3.33268 21.0667 3.33268 20.3334V4.33337C3.33268 3.60004 3.93268 3.00004 4.66602 3.00004H17.9993C18.7327 3.00004 19.3327 2.40004 19.3327 1.66671C19.3327 0.933374 18.7327 0.333374 17.9993 0.333374ZM23.3327 5.66671H8.66602C7.19935 5.66671 5.99935 6.86671 5.99935 8.33337V27C5.99935 28.4667 7.19935 29.6667 8.66602 29.6667H23.3327C24.7993 29.6667 25.9993 28.4667 25.9993 27V8.33337C25.9993 6.86671 24.7993 5.66671 23.3327 5.66671ZM21.9993 27H9.99935C9.26602 27 8.66602 26.4 8.66602 25.6667V9.66671C8.66602 8.93337 9.26602 8.33337 9.99935 8.33337H21.9993C22.7327 8.33337 23.3327 8.93337 23.3327 9.66671V25.6667C23.3327 26.4 22.7327 27 21.9993 27Z" fill="white"/>
</svg>
