<svg width="28" height="22" viewBox="0 0 28 22" fill="none" xmlns="http://www.w3.org/2000/svg">
<path d="M24.666 0.333336H3.33268C1.86602 0.333336 0.679349 1.53334 0.679349 3L0.666016 19C0.666016 20.4667 1.86602 21.6667 3.33268 21.6667H24.666C26.1327 21.6667 27.3327 20.4667 27.3327 19V3C27.3327 1.53334 26.1327 0.333336 24.666 0.333336ZM24.1327 6L14.706 11.8933C14.2793 12.16 13.7193 12.16 13.2927 11.8933L3.86602 6C3.53268 5.78667 3.33268 5.42667 3.33268 5.04C3.33268 4.14667 4.30602 3.61334 5.06602 4.08L13.9993 9.66667L22.9327 4.08C23.6927 3.61334 24.666 4.14667 24.666 5.04C24.666 5.42667 24.466 5.78667 24.1327 6Z" fill="white"/>
</svg>
