<svg width="32" height="32" viewBox="0 0 32 32" fill="none" xmlns="http://www.w3.org/2000/svg">
<rect width="32" height="32" fill="#0097FF"/>
<path d="M16 26.6667L14.8533 25.52C13.28 23.9467 13.2933 21.3867 14.88 19.84L16 18.7467C15.48 18.6934 15.0933 18.6667 14.6667 18.6667C11.1067 18.6667 4 20.4534 4 24V26.6667H16ZM14.6667 16C17.6133 16 20 13.6134 20 10.6667C20 7.72004 17.6133 5.33337 14.6667 5.33337C11.72 5.33337 9.33333 7.72004 9.33333 10.6667C9.33333 13.6134 11.72 16 14.6667 16Z" fill="white"/>
<path d="M21.5724 26.3733C21.0524 26.8933 20.1991 26.8933 19.6791 26.3733L16.9191 23.5866C16.4124 23.0666 16.4124 22.24 16.9191 21.7333L16.9324 21.72C17.4524 21.2 18.2924 21.2 18.7991 21.72L20.6257 23.5466L26.5324 17.6C27.0524 17.08 27.8924 17.08 28.4124 17.6L28.4257 17.6133C28.9324 18.1333 28.9324 18.96 28.4257 19.4666L21.5724 26.3733Z" fill="white"/>
</svg>
