<svg width="26" height="23" viewBox="0 0 26 23" fill="none" xmlns="http://www.w3.org/2000/svg">
<path d="M24.1429 0H1.85714C0.831151 0 0 0.831151 0 1.85714V3.27324L26 3.25459V1.85717C26 0.831174 25.1688 2.34799e-05 24.1429 2.34799e-05V0Z" fill="white"/>
<path d="M0 20.4285C0 21.4545 0.831151 22.2856 1.85714 22.2856H24.1429C25.1688 22.2856 26 21.4545 26 20.4285V4.18327L0 4.20193V20.4285ZM14.3929 7.4285H23.2143V12.0714H14.3929V7.4285ZM14.3929 14.3928H23.2143C23.4696 14.3928 23.6786 14.6017 23.6786 14.8571C23.6786 15.1124 23.4696 15.3214 23.2143 15.3214H14.3929C14.1375 15.3214 13.9286 15.1124 13.9286 14.8571C13.9286 14.6017 14.1375 14.3928 14.3929 14.3928ZM14.3929 16.7142H23.2143C23.4696 16.7142 23.6786 16.9231 23.6786 17.1785C23.6786 17.4339 23.4696 17.6428 23.2143 17.6428H14.3929C14.1375 17.6428 13.9286 17.4339 13.9286 17.1785C13.9286 16.9231 14.1375 16.7142 14.3929 16.7142ZM14.3929 19.0356H23.2143C23.4696 19.0356 23.6786 19.2446 23.6786 19.4999C23.6786 19.7553 23.4696 19.9642 23.2143 19.9642H14.3929C14.1375 19.9642 13.9286 19.7553 13.9286 19.4999C13.9286 19.2446 14.1375 19.0356 14.3929 19.0356ZM6.96429 6.49993C9.26704 6.49993 11.1429 8.37575 11.1429 10.6785C11.1429 12.9812 9.26704 14.8571 6.96429 14.8571C4.66153 14.8571 2.78571 12.9812 2.78571 10.6785C2.78571 8.37575 4.66153 6.49993 6.96429 6.49993ZM2.78571 16.7142H11.6071C11.8625 16.7142 12.0714 16.9231 12.0714 17.1785C12.0714 17.4339 11.8625 17.6428 11.6071 17.6428H2.78571C2.53036 17.6428 2.32143 17.4339 2.32143 17.1785C2.32143 16.9231 2.53036 16.7142 2.78571 16.7142ZM2.78571 19.0356H10.6786C10.9339 19.0356 11.1429 19.2446 11.1429 19.4999C11.1429 19.7553 10.9339 19.9642 10.6786 19.9642H2.78571C2.53036 19.9642 2.32143 19.7553 2.32143 19.4999C2.32143 19.2446 2.53036 19.0356 2.78571 19.0356Z" fill="white"/>
<path d="M5.4169 13.5338C5.12444 12.9024 4.93395 12.0806 4.88753 11.1427H3.75C3.89861 12.178 4.52995 13.0556 5.41686 13.5338H5.4169Z" fill="white"/>
<path d="M5.41686 7.8234C4.53016 8.30157 3.89862 9.17917 3.75 10.2144H4.88753C4.93395 9.27654 5.12423 8.45472 5.4169 7.8234H5.41686Z" fill="white"/>
<path d="M6.96522 13.9286C7.40174 13.9286 8.01441 12.8562 8.11204 11.1429H5.81836C5.91577 12.8562 6.52869 13.9286 6.96517 13.9286H6.96522Z" fill="white"/>
<path d="M6.96517 7.42864C6.52866 7.42864 5.91599 8.50106 5.81836 10.2144H8.11204C8.01462 8.50106 7.40171 7.42864 6.96523 7.42864H6.96517Z" fill="white"/>
<path d="M10.1767 11.1429H9.03914C8.99271 12.0808 8.80244 12.9026 8.50977 13.5339C9.39647 13.0558 10.028 12.1782 10.1766 11.1429H10.1767Z" fill="white"/>
<path d="M10.1766 10.2143C10.028 9.17894 9.39668 8.30136 8.50977 7.82323C8.80222 8.45455 8.99271 9.27641 9.03914 10.2143H10.1766Z" fill="white"/>
</svg>
