<svg width="32" height="32" viewBox="0 0 32 32" fill="none" xmlns="http://www.w3.org/2000/svg">
<path d="M22.6667 14.6667C23.12 14.6667 23.56 14.72 24 14.7867V10.1067C24 9.04004 23.3733 8.08004 22.4 7.6667L15.0667 4.4667C14.3867 4.17337 13.6133 4.17337 12.9333 4.4667L5.6 7.6667C4.62667 8.09337 4 9.05337 4 10.1067V14.9067C4 20.96 8.26667 26.6267 14 28C14.7333 27.8267 15.44 27.5734 16.1333 27.2667C15.2133 25.96 14.6667 24.3734 14.6667 22.6667C14.6667 18.2534 18.2533 14.6667 22.6667 14.6667Z" fill="white"/>
<path d="M22.6654 17.3334C19.7187 17.3334 17.332 19.72 17.332 22.6667C17.332 25.6134 19.7187 28 22.6654 28C25.612 28 27.9987 25.6134 27.9987 22.6667C27.9987 19.72 25.612 17.3334 22.6654 17.3334ZM22.6654 19.1734C23.492 19.1734 24.1587 19.8534 24.1587 20.6667C24.1587 21.48 23.4787 22.16 22.6654 22.16C21.852 22.16 21.172 21.48 21.172 20.6667C21.172 19.8534 21.8387 19.1734 22.6654 19.1734ZM22.6654 26.3334C21.4254 26.3334 20.3454 25.72 19.6787 24.7734C19.7454 23.8134 21.692 23.3334 22.6654 23.3334C23.6387 23.3334 25.5854 23.8134 25.652 24.7734C24.9854 25.72 23.9054 26.3334 22.6654 26.3334Z" fill="white"/>
</svg>
