<svg width="26" height="26" viewBox="0 0 26 26" fill="none" xmlns="http://www.w3.org/2000/svg">
<path d="M5.66258 25.982C7.12703 25.982 8.53452 25.4324 9.58949 24.448C10.6445 23.464 11.2644 22.1223 11.32 20.7043V19.8925C11.32 19.3122 11.6395 18.7762 12.158 18.4862C12.6766 18.1963 13.3156 18.1963 13.8341 18.4862C14.3526 18.7762 14.6721 19.3123 14.6721 19.8925V20.7046V20.7043C14.7332 22.3824 15.5835 23.9411 16.9805 24.935C18.3774 25.929 20.1669 26.249 21.8381 25.8033C23.5089 25.3579 24.8775 24.1957 25.5528 22.6492C26.2277 21.1028 26.1347 19.342 25.3008 17.87C24.4668 16.3983 22.983 15.3771 21.274 15.0987C19.5648 14.8204 17.818 15.3151 16.5331 16.4418C15.5906 15.5342 14.3162 15.0251 12.9876 15.0251C11.6591 15.0251 10.3846 15.5342 9.44251 16.4418C8.05933 15.231 6.14874 14.7589 4.33559 15.1797C2.52265 15.6005 1.0407 16.8604 0.373954 18.5467C-0.292806 20.2334 -0.0583677 22.1301 1.00066 23.6165C2.05937 25.1027 3.80683 25.9879 5.67117 25.9819L5.66258 25.982ZM20.3295 18.2686C20.9407 18.2686 21.5271 18.5039 21.9591 18.9225C22.3914 19.3413 22.6343 19.909 22.6343 20.5015C22.6343 21.0936 22.3914 21.6614 21.9591 22.0802C21.527 22.499 20.9407 22.734 20.3295 22.734C19.7183 22.734 19.1319 22.499 18.6999 22.0802C18.2676 21.6614 18.0246 21.0936 18.0246 20.5015C18.0246 19.909 18.2676 19.3413 18.6999 18.9225C19.1319 18.5039 19.7183 18.2686 20.3295 18.2686ZM5.66258 18.2686C6.2738 18.2686 6.86018 18.5039 7.29218 18.9225C7.7245 19.3413 7.96741 19.909 7.96741 20.5015C7.96741 21.0936 7.7245 21.6614 7.29218 22.0802C6.86015 22.499 6.2738 22.734 5.66258 22.734C5.05136 22.734 4.46499 22.499 4.03299 22.0802C3.60066 21.6614 3.35775 21.0936 3.35775 20.5015C3.35775 19.909 3.60066 19.3413 4.03299 18.9225C4.46501 18.5039 5.05136 18.2686 5.66258 18.2686Z" fill="white"/>
<path d="M2.5649 12.5848H24.3093C24.9083 12.5848 25.4616 12.2753 25.7609 11.7729C26.0605 11.2705 26.0605 10.6515 25.7609 10.1492C25.4616 9.64681 24.9082 9.33731 24.3093 9.33731H22.7379L22.5996 8.68373L21.4429 3.24782C21.2497 2.33062 20.7356 1.50651 19.9873 0.914662C19.2389 0.322811 18.3024 -0.000289782 17.3363 1.95017e-07H8.64915C7.68308 -0.000282968 6.74649 0.322825 5.99818 0.914662C5.24987 1.50651 4.7354 2.33055 4.54219 3.24782L3.38553 8.68772L3.25164 9.33734H1.68019C1.08125 9.33734 0.527943 9.64685 0.228618 10.1492C-0.0709978 10.6516 -0.0709978 11.2706 0.228618 11.7729C0.527943 12.2753 1.08132 12.5848 1.68019 12.5848L2.5649 12.5848ZM7.82822 3.89705C7.9089 3.51305 8.26172 3.23979 8.66626 3.24772H17.3407C17.7455 3.23979 18.098 3.51306 18.179 3.89705L19.3146 9.33724H6.67568L7.82822 3.89705Z" fill="white"/>
</svg>
