<svg width="20" height="28" viewBox="0 0 20 28" fill="none" xmlns="http://www.w3.org/2000/svg">
<path d="M5.99935 26.0001C5.99935 26.6667 6.53268 27.3334 7.33268 27.3334H12.666C13.466 27.3334 13.9993 26.6667 13.9993 26.0001V24.6667H5.99935V26.0001ZM9.99935 0.666748C4.79935 0.666748 0.666016 4.80008 0.666016 10.0001C0.666016 13.2001 2.26602 16.0001 4.66602 17.6001V20.6667C4.66602 21.3334 5.19935 22.0001 5.99935 22.0001H13.9993C14.7993 22.0001 15.3327 21.3334 15.3327 20.6667V17.6001C17.7327 15.8667 19.3327 13.0667 19.3327 10.0001C19.3327 4.80008 15.1993 0.666748 9.99935 0.666748Z" fill="white"/>
</svg>
