<svg width="28" height="28" viewBox="0 0 28 28" fill="none" xmlns="http://www.w3.org/2000/svg">
<path d="M13.986 0.666687C6.62602 0.666687 0.666016 6.64002 0.666016 14C0.666016 21.36 6.62602 27.3334 13.986 27.3334C21.3593 27.3334 27.3327 21.36 27.3327 14C27.3327 6.64002 21.3593 0.666687 13.986 0.666687ZM23.226 8.66669H19.2927C18.866 7.00002 18.2527 5.40002 17.4527 3.92002C19.906 4.76002 21.946 6.46669 23.226 8.66669ZM13.9993 3.38669C15.106 4.98669 15.9727 6.76002 16.546 8.66669H11.4527C12.026 6.76002 12.8927 4.98669 13.9993 3.38669ZM3.67935 16.6667C3.46602 15.8134 3.33268 14.92 3.33268 14C3.33268 13.08 3.46602 12.1867 3.67935 11.3334H8.18602C8.07935 12.2134 7.99935 13.0934 7.99935 14C7.99935 14.9067 8.07935 15.7867 8.18602 16.6667H3.67935ZM4.77268 19.3334H8.70602C9.13268 21 9.74602 22.6 10.546 24.08C8.09268 23.24 6.05268 21.5467 4.77268 19.3334V19.3334ZM8.70602 8.66669H4.77268C6.05268 6.45335 8.09268 4.76002 10.546 3.92002C9.74602 5.40002 9.13268 7.00002 8.70602 8.66669V8.66669ZM13.9993 24.6134C12.8927 23.0134 12.026 21.24 11.4527 19.3334H16.546C15.9727 21.24 15.106 23.0134 13.9993 24.6134ZM17.1193 16.6667H10.8793C10.7593 15.7867 10.666 14.9067 10.666 14C10.666 13.0934 10.7593 12.2 10.8793 11.3334H17.1193C17.2393 12.2 17.3327 13.0934 17.3327 14C17.3327 14.9067 17.2393 15.7867 17.1193 16.6667ZM17.4527 24.08C18.2527 22.6 18.866 21 19.2927 19.3334H23.226C21.946 21.5334 19.906 23.24 17.4527 24.08V24.08ZM19.8127 16.6667C19.9194 15.7867 19.9993 14.9067 19.9993 14C19.9993 13.0934 19.9194 12.2134 19.8127 11.3334H24.3193C24.5327 12.1867 24.666 13.08 24.666 14C24.666 14.92 24.5327 15.8134 24.3193 16.6667H19.8127Z" fill="white"/>
</svg>
