<svg width="30" height="22" viewBox="0 0 30 22" fill="none" xmlns="http://www.w3.org/2000/svg">
<path d="M29.6673 5.66665V19C29.6673 20.4666 28.4673 21.6666 27.0006 21.6666H5.66732C4.93398 21.6666 4.33398 21.0666 4.33398 20.3333C4.33398 19.6 4.93398 19 5.66732 19H27.0006V5.66665C27.0006 4.93331 27.6006 4.33331 28.334 4.33331C29.0673 4.33331 29.6673 4.93331 29.6673 5.66665ZM4.33398 16.3333C2.12065 16.3333 0.333984 14.5466 0.333984 12.3333V4.33331C0.333984 2.11998 2.12065 0.333313 4.33398 0.333313H20.334C22.5473 0.333313 24.334 2.11998 24.334 4.33331V13.6666C24.334 15.1333 23.134 16.3333 21.6673 16.3333H4.33398ZM8.33398 8.33331C8.33398 10.5466 10.1207 12.3333 12.334 12.3333C14.5473 12.3333 16.334 10.5466 16.334 8.33331C16.334 6.11998 14.5473 4.33331 12.334 4.33331C10.1207 4.33331 8.33398 6.11998 8.33398 8.33331Z" fill="white"/>
</svg>
