<svg width="32" height="32" viewBox="0 0 32 32" fill="none" xmlns="http://www.w3.org/2000/svg">
<path d="M15.9994 30.6667C17.4661 30.6667 18.6528 29.48 18.6528 28.0133H13.3461C13.3461 29.48 14.5328 30.6667 15.9994 30.6667ZM27.0528 24.3867L25.3328 22.6667V14.6667C25.3328 10.2 22.1861 6.46667 17.9994 5.56V4C17.9994 2.89333 17.1061 2 15.9994 2C14.8928 2 13.9994 2.89333 13.9994 4V5.56C9.81275 6.46667 6.66608 10.2 6.66608 14.6667V22.6667L4.94608 24.3867C4.10608 25.2267 4.69275 26.6667 5.87942 26.6667H26.1061C27.3061 26.6667 27.8928 25.2267 27.0528 24.3867Z" fill="white"/>
</svg>
