<svg width="27" height="26" viewBox="0 0 27 26" fill="none" xmlns="http://www.w3.org/2000/svg">
<path d="M16.7593 4.0933C19.6793 4.99996 21.9993 7.31996 22.906 10.24C23.1593 11.08 23.9193 11.6666 24.786 11.6666H24.8393C26.1727 11.6666 27.1327 10.3866 26.746 9.11996C25.4527 4.87996 22.106 1.5333 17.866 0.239963C16.6127 -0.146704 15.3327 0.813296 15.3327 2.14663V2.19996C15.3327 3.07996 15.9193 3.83996 16.7593 4.0933ZM22.906 15.76C21.9993 18.6933 19.6793 21 16.7593 21.9066C15.9193 22.16 15.3327 22.92 15.3327 23.7866V23.84C15.3327 25.1733 16.6127 26.1333 17.8793 25.7466C22.1194 24.4533 25.466 21.1066 26.7593 16.8666C27.146 15.6 26.186 14.32 24.866 14.32H24.7994C23.9193 14.3333 23.1593 14.92 22.906 15.76ZM12.666 23.8133C12.666 22.92 12.066 22.16 11.2127 21.8933C7.42602 20.7066 4.66602 17.1733 4.66602 13C4.66602 8.82663 7.42602 5.2933 11.2127 4.10663C12.066 3.83996 12.666 3.07996 12.666 2.18663V2.1733C12.666 0.839962 11.3727 -0.146704 10.0927 0.253296C4.63935 1.91996 0.666016 6.99996 0.666016 13C0.666016 19 4.63935 24.08 10.0927 25.7466C11.3727 26.1466 12.666 25.16 12.666 23.8133Z" fill="white"/>
</svg>
