<svg width="28" height="28" viewBox="0 0 28 28" fill="none" xmlns="http://www.w3.org/2000/svg">
<path d="M8.34112 27.3333H4.89223C4.15445 27.3333 3.68557 26.7455 3.85223 26.0222L4.01779 25.2733H6.3189C7.0589 25.2733 7.80334 24.6811 7.96557 23.96L9.14779 18.8577C9.31445 18.1377 10.0545 17.5466 10.7922 17.5466H11.7733C15.9833 17.5466 19.2556 16.6811 21.5956 14.9466C23.9356 13.2122 25.1067 10.9466 25.1067 8.12996C25.1067 6.87996 24.89 5.84663 24.4533 5.03107C24.4533 5.01329 24.4356 4.99663 24.4356 4.97996L24.5856 5.06329C25.4189 5.57996 26.0522 6.24551 26.4867 7.07885C26.9356 7.91218 27.1511 8.94552 27.1511 10.18C27.1511 12.9966 25.9856 15.2622 23.6356 16.9966C21.3022 18.7133 18.0189 19.5788 13.82 19.5788H12.82C12.0867 19.5788 11.3378 20.1622 11.1711 20.8966L9.98779 26.0133C9.82223 26.73 9.08779 27.3133 8.35445 27.3133L8.34112 27.3333ZM5.36668 24.3389H1.91668C1.18001 24.3389 0.712233 23.7511 0.876677 23.0277L5.73557 1.97996C5.90334 1.2544 6.64112 0.666626 7.38112 0.666626H14.5645C16.1145 0.666626 17.4633 0.775515 18.6178 0.987737C19.7678 1.19774 20.7511 1.5644 21.6 2.08774C22.4178 2.6044 23.0689 3.27885 23.4856 4.10774C23.9178 4.93885 24.1345 5.9744 24.1345 7.21552C24.1345 10.0322 22.9667 12.2977 20.6189 14.0144C18.2856 15.7488 15.0011 16.5988 10.8011 16.5988H9.82001C9.08668 16.5988 8.34445 17.1811 8.17779 17.8977L6.9989 22.9966C6.83334 23.7144 6.09112 24.2988 5.3489 24.2988L5.36668 24.3389ZM13.64 5.03996H12.5133C11.7733 5.03996 11.0333 5.62774 10.8689 6.34885L9.83557 10.8155C9.6689 11.5355 10.1356 12.1255 10.8689 12.1255H11.72C13.5689 12.1255 15.02 11.7444 16.0533 10.9911C17.0856 10.2288 17.6033 9.15329 17.6033 7.75552C17.6033 6.83329 17.2689 6.14996 16.6033 5.71107C15.9367 5.26218 14.9367 5.03885 13.6189 5.03885L13.64 5.03996Z" fill="white"/>
</svg>
