<svg width="32" height="32" viewBox="0 0 32 32" fill="none" xmlns="http://www.w3.org/2000/svg">
<path d="M4.70492 13.8708C5.2711 13.3047 4.9206 12.6847 4.30065 12.6578C3.27626 12.6039 2.68317 11.4988 3.51901 10.5822C4.43548 9.74655 5.54074 10.3396 5.5947 11.3638C5.62159 11.9837 6.24171 12.3342 6.80769 11.7681L8.18242 10.3933C8.58669 9.98906 9.26058 9.98906 9.66507 10.3933L11.0398 11.7681C11.606 12.3342 12.2259 11.9837 12.2528 11.3638C12.3068 10.3394 13.4118 9.74631 14.3285 10.609C15.1641 11.5255 14.5981 12.6307 13.5468 12.6847C12.9269 12.7116 12.5764 13.3317 13.1426 13.8977L14.5444 15.2995C14.9486 15.7037 14.9486 16.3776 14.5444 16.7821L13.5202 17.8063C13.4124 17.4829 13.2236 17.1593 12.9811 16.9168C12.1184 16.0541 10.8245 16.0812 9.88119 16.9707L9.82741 17.0245C8.93785 17.9681 8.93785 19.2888 9.77344 20.1244C10.016 20.367 10.3125 20.5557 10.663 20.6635L9.69257 21.6339C9.26123 22.0382 8.58731 22.0382 8.18306 21.6339L6.80833 20.2592C6.24215 19.693 5.6222 20.0435 5.59534 20.6634C5.54063 21.6612 4.43535 22.2271 3.51888 21.3915C2.68328 20.475 3.24924 19.3698 4.27366 19.3158C4.89361 19.2889 5.24409 18.6688 4.67793 18.1028L3.3032 16.7281C2.89893 16.3238 2.89893 15.6499 3.3032 15.2455L4.70492 13.8708ZM10.4197 8.15607C10.0154 8.56034 9.98833 9.26133 10.4197 9.66558L11.3901 10.636C11.4979 10.3126 11.6866 9.98901 11.9292 9.74645C12.7919 8.88375 14.0858 8.91085 15.0291 9.80042L15.0829 9.8542C15.9724 10.7978 15.9724 12.1185 15.1368 12.9541C14.8943 13.1967 14.5977 13.3854 14.2473 13.4932L15.2715 14.5174C15.6757 14.9216 16.3496 14.9216 16.7541 14.5174L18.1559 13.1156C18.7221 12.5494 19.342 12.8999 19.3689 13.5199C19.4229 14.5442 20.5279 15.1373 21.4446 14.3015C22.2802 13.385 21.7142 12.2798 20.6898 12.2258C20.0698 12.1989 19.7194 11.5788 20.2855 11.0128L21.6603 9.63808C22.0645 9.23381 22.0645 8.55992 21.6603 8.15543L20.2855 6.7807C19.7193 6.21452 20.0699 5.59457 20.6898 5.56771C21.7142 5.51375 22.3073 4.40868 21.4714 3.49202C20.555 2.65642 19.4497 3.22238 19.3957 4.27366C19.3689 4.89361 18.7487 5.24409 18.1828 4.67793L16.808 3.3032C16.4038 2.89893 15.7299 2.89893 15.3254 3.3032L13.9506 4.67793C13.3845 5.24411 12.7916 4.9205 12.7377 4.27366C12.6837 3.24927 11.5786 2.65618 10.662 3.51888C9.82636 4.43535 10.3923 5.54061 11.4167 5.59457C12.0367 5.62146 12.3872 6.24158 11.821 6.80756L10.4197 8.15607ZM22.2535 11.8761C23.1162 12.7388 23.0891 14.0327 22.1996 14.976L22.1458 15.0298C21.2022 15.9193 19.8815 15.9193 19.0459 15.0837C18.8033 14.8412 18.6146 14.5447 18.5068 14.1942L17.4826 15.2184C17.0784 15.6226 17.0784 16.2965 17.4826 16.701L18.8844 18.1028C19.4506 18.669 19.1001 19.2889 18.4801 19.3158C17.4558 19.3698 16.8627 20.4748 17.6985 21.3915C18.615 22.2271 19.7202 21.6611 19.7742 20.6367C19.8011 20.0168 20.4212 19.6663 20.9872 20.2324L22.3619 21.6072C22.7662 22.0114 23.4401 22.0114 23.8446 21.6072L25.2193 20.2324C25.7855 19.6663 26.4054 20.0168 26.4323 20.6367C26.4862 21.6611 27.5913 22.2542 28.508 21.4184C29.3436 20.5019 28.7776 19.3966 27.7263 19.3427C27.1064 19.3158 26.7559 18.6957 27.3221 18.1297L28.6968 16.7549C29.1011 16.3507 29.1011 15.6768 28.6968 15.2723L27.3221 13.8976C26.7559 13.3314 27.0795 12.7385 27.7263 12.6846C28.7507 12.6306 29.3438 11.5255 28.4811 10.6089C27.5646 9.77328 26.4594 10.3392 26.4054 11.3637C26.3785 11.9836 25.7584 12.3341 25.1924 11.7679L23.8177 10.3932C23.4134 9.98893 22.7124 9.98893 22.3082 10.3932L21.3378 11.3636C21.7146 11.4447 22.0111 11.6335 22.2537 11.876L22.2535 11.8761ZM11.3632 26.4326C10.3388 26.4865 9.74567 27.5916 10.5815 28.5083C11.498 29.3439 12.6032 28.7779 12.6572 27.7266C12.6841 27.1067 13.3042 26.7562 13.8702 27.3224L15.2449 28.6971C15.6492 29.1014 16.3231 29.1014 16.7276 28.6971L18.1023 27.3224C18.6685 26.7562 19.2613 27.0798 19.3153 27.7266C19.3693 28.751 20.4743 29.3441 21.391 28.4814C22.2266 27.5649 21.6606 26.4597 20.6362 26.4057C20.0163 26.3788 19.6658 25.7587 20.2319 25.1927L21.6067 23.818C22.0109 23.4137 22.0109 22.7127 21.6067 22.3085L20.6362 21.338C20.5285 21.6615 20.3397 21.9851 20.0972 22.2276C19.2345 23.0903 17.9406 23.0632 16.9973 22.1736L16.9435 22.1199C16.0539 21.1763 16.0539 19.8556 16.8895 19.02C17.1321 18.7774 17.4286 18.5886 17.7791 18.4809L16.7549 17.4567C16.3506 17.0524 15.6767 17.0524 15.2722 17.4567L13.8701 18.8579C13.3039 19.4241 12.6839 19.0736 12.6571 18.4536C12.6031 17.4292 11.498 16.8361 10.5814 17.672C9.74578 18.5885 10.3117 19.6937 11.3362 19.7477C11.9561 19.7746 12.3066 20.3947 11.7404 20.9607L10.3657 22.3354C9.96144 22.7397 9.96144 23.4136 10.3657 23.8181L11.7404 25.1928C12.3337 25.7858 11.9832 26.4058 11.3632 26.4327L11.3632 26.4326Z" fill="white"/>
</svg>
