<svg width="26" height="26" viewBox="0 0 26 26" fill="none" xmlns="http://www.w3.org/2000/svg">
<path d="M0.657211 16.9457L1.3945 17.525H1.39469C1.58061 17.6733 1.73716 17.8551 1.85593 18.0612L3.73287 21.2413V21.2415C4.47582 22.5008 5.53445 23.5448 6.80391 24.2704C8.07356 24.9959 9.51036 25.3781 10.9726 25.3788H14.1903C14.5606 25.3788 14.8606 25.0788 14.8606 24.7084C14.8606 24.3383 14.5606 24.0381 14.1903 24.0381H10.9726C8.46892 24.0356 6.1528 22.7101 4.88296 20.5522L3.00602 17.3721C2.79971 17.0259 2.53056 16.7212 2.21223 16.4738L1.46143 15.8919C1.37838 15.8264 1.32583 15.7295 1.31629 15.624C1.30656 15.5186 1.3406 15.4138 1.41056 15.3343C1.71469 14.9861 2.14733 14.7766 2.60891 14.7539C3.07071 14.7311 3.52165 14.897 3.85874 15.2135L7.27486 18.9676C7.52736 19.2264 7.93961 19.2384 8.2067 18.9945C8.47379 18.7506 8.49923 18.3388 8.2643 18.064L4.82951 14.3101L4.79715 14.2777C4.19939 13.7078 3.39563 13.4054 2.57043 13.4398C1.74522 13.4742 0.969339 13.8425 0.421133 14.4601C0.112517 14.8166 -0.0369291 15.284 0.0077739 15.7533C0.0522897 16.2228 0.286838 16.6537 0.657011 16.9457L0.657211 16.9457Z" fill="white"/>
<path d="M15.6734 2.05884C15.3321 2.05902 14.995 2.13496 14.6866 2.28141C14.6589 1.47244 14.2188 0.734047 13.5208 0.324605C12.8226 -0.084828 11.9633 -0.108209 11.2437 0.262506C10.5242 0.633221 10.0446 1.34642 9.9728 2.15276C9.23905 1.78541 8.36726 1.82544 7.67033 2.25862C6.97359 2.69181 6.55185 3.45587 6.55668 4.27643V14.4093C6.55668 14.7795 6.85669 15.0797 7.22704 15.0797C7.59719 15.0797 7.89739 14.7795 7.89739 14.4093V4.27643C7.89739 3.9104 8.09247 3.57223 8.40949 3.38932C8.72634 3.20639 9.11686 3.20639 9.43374 3.38932C9.75078 3.57224 9.94584 3.91042 9.94584 4.27643V11.5914C9.94584 11.9618 10.246 12.2618 10.6162 12.2618C10.9865 12.2618 11.2866 11.9618 11.2866 11.5914V2.38604C11.2866 2.02 11.4818 1.68202 11.7987 1.49892C12.1157 1.31599 12.506 1.31599 12.8231 1.49892C13.1399 1.68203 13.3352 2.02002 13.3352 2.38604V11.5512C13.3352 11.9215 13.6354 12.2216 14.0056 12.2216C14.3757 12.2216 14.6759 11.9215 14.6759 11.5512V4.3813C14.6759 4.0306 14.8629 3.70663 15.1665 3.53138C15.4703 3.35612 15.8443 3.35612 16.1479 3.53138C16.4517 3.70664 16.6387 4.0306 16.6387 4.3813V11.7284C16.6387 12.0985 16.9389 12.3987 17.3091 12.3987C17.6792 12.3987 17.9794 12.0985 17.9794 11.7284V6.53696C17.9794 6.21319 18.1522 5.91391 18.4326 5.75212C18.713 5.59014 19.0584 5.59014 19.3388 5.75212C19.6194 5.91391 19.792 6.21317 19.792 6.53696V12.5677C19.792 12.9379 20.0922 13.2381 20.4624 13.2381C20.8325 13.2381 21.1327 12.9379 21.1327 12.5677V6.53696C21.1299 5.78133 20.7471 5.07765 20.1141 4.66505C19.481 4.25225 18.6827 4.18584 17.9901 4.48829V4.38112C17.9896 3.76631 17.7453 3.17697 17.3111 2.74191C16.877 2.30667 16.2882 2.06107 15.6734 2.05901L15.6734 2.05884Z" fill="white"/>
<path d="M9.87627 15.2862H9.21918C8.84903 15.2862 8.54883 15.5864 8.54883 15.9565C8.54883 16.3269 8.84903 16.6269 9.21918 16.6269H9.8654C10.5448 16.6299 11.2009 16.8743 11.7165 17.3163C12.2322 17.7585 12.5741 18.3693 12.6809 19.0403C12.7036 19.2198 12.7978 19.3825 12.9422 19.4916C13.0866 19.6006 13.2692 19.6466 13.448 19.6191C13.6268 19.5915 13.7869 19.4929 13.892 19.3455C13.9969 19.1981 14.0379 19.0144 14.0055 18.8364C13.8488 17.8516 13.3477 16.9544 12.5917 16.3044C11.8355 15.6543 10.8733 15.2935 9.87625 15.2861L9.87627 15.2862Z" fill="white"/>
<path d="M20.4733 14.5354C19.0091 14.5363 17.605 15.1186 16.5699 16.1544C15.5347 17.19 14.9531 18.5943 14.9531 20.0587C14.9529 21.523 15.5343 22.9275 16.5692 23.9633C17.8734 25.2687 19.7434 25.8365 21.5532 25.4769C23.363 25.1172 24.874 23.8775 25.58 22.1726C26.2861 20.4675 26.094 18.5227 25.0683 16.9888C24.0425 15.4547 22.3184 14.5343 20.4731 14.5354L20.4733 14.5354ZM23.4229 23.0168C22.6389 23.8018 21.5748 24.2428 20.4652 24.2428C19.3559 24.2428 18.2918 23.8018 17.5077 23.0168C16.7231 22.2323 16.2824 21.1684 16.2822 20.059C16.2822 18.9496 16.7229 17.8855 17.5074 17.1011C18.2918 16.3165 19.3559 15.8758 20.4652 15.8758C21.5747 15.8758 22.6388 16.3165 23.4232 17.1011C24.2077 17.8856 24.6484 18.9496 24.6484 20.059C24.6482 21.1685 24.2075 22.2324 23.4228 23.0168H23.4229Z" fill="white"/>
<path d="M22.3758 18.1634C22.2501 18.0373 22.0793 17.9664 21.9012 17.9664C21.723 17.9664 21.5522 18.0373 21.4265 18.1634L20.4988 19.0859L19.5683 18.1634C19.3027 17.9352 18.9061 17.95 18.6581 18.1972C18.4103 18.4445 18.3944 18.841 18.6218 19.1072L19.5496 20.0403L18.6218 20.96C18.3574 21.2215 18.3549 21.6475 18.6164 21.9121C18.8777 22.1763 19.304 22.1788 19.5683 21.9173L20.4988 20.9815L21.4239 21.9173C21.6882 22.1803 22.1156 22.179 22.3784 21.9147C22.6414 21.6504 22.6401 21.223 22.3758 20.96L21.4452 20.0403L22.3758 19.1072C22.6348 18.8459 22.6348 18.4247 22.3758 18.1634L22.3758 18.1634Z" fill="white"/>
</svg>
