<svg width="28" height="26" viewBox="0 0 28 26" fill="none" xmlns="http://www.w3.org/2000/svg">
<path d="M24.666 6.00008H21.7593C21.906 5.58675 21.9993 5.13341 21.9993 4.66675C21.9993 2.45341 20.2127 0.666748 17.9993 0.666748C16.5993 0.666748 15.386 1.38675 14.666 2.46675L13.9993 3.36008L13.3327 2.45341C12.6127 1.38675 11.3993 0.666748 9.99935 0.666748C7.78602 0.666748 5.99935 2.45341 5.99935 4.66675C5.99935 5.13341 6.09268 5.58675 6.23935 6.00008H3.33268C1.85268 6.00008 0.679349 7.18675 0.679349 8.66675L0.666016 23.3334C0.666016 24.8134 1.85268 26.0001 3.33268 26.0001H24.666C26.146 26.0001 27.3327 24.8134 27.3327 23.3334V8.66675C27.3327 7.18675 26.146 6.00008 24.666 6.00008ZM17.9993 3.33341C18.7327 3.33341 19.3327 3.93341 19.3327 4.66675C19.3327 5.40008 18.7327 6.00008 17.9993 6.00008C17.266 6.00008 16.666 5.40008 16.666 4.66675C16.666 3.93341 17.266 3.33341 17.9993 3.33341ZM9.99935 3.33341C10.7327 3.33341 11.3327 3.93341 11.3327 4.66675C11.3327 5.40008 10.7327 6.00008 9.99935 6.00008C9.26602 6.00008 8.66602 5.40008 8.66602 4.66675C8.66602 3.93341 9.26602 3.33341 9.99935 3.33341ZM24.666 23.3334H3.33268V20.6667H24.666V23.3334ZM24.666 16.6667H3.33268V10.0001C3.33268 9.26675 3.93268 8.66675 4.66602 8.66675H10.106L8.13268 11.3601C7.69268 11.9601 7.82602 12.8001 8.42602 13.2267C9.01268 13.6534 9.85268 13.5201 10.2793 12.9334L13.9993 7.86675L17.7193 12.9334C18.146 13.5201 18.986 13.6534 19.5727 13.2267C20.1727 12.8001 20.306 11.9601 19.866 11.3601L17.8927 8.66675H23.3327C24.066 8.66675 24.666 9.26675 24.666 10.0001V16.6667Z" fill="white"/>
</svg>
