<svg width="32" height="32" viewBox="0 0 32 32" fill="none" xmlns="http://www.w3.org/2000/svg">
<g clip-path="url(#clip0_2128_3024)">
<path d="M7.97866 13.3398L15.4135 10.8642V6.94489L14.4736 7.89551C14.2471 8.12606 13.8764 8.12911 13.6458 7.90262C13.4153 7.67614 13.4123 7.30493 13.6387 7.07438L15.5166 5.17516C15.6482 5.04161 15.8274 4.98422 16.0006 5.00352C16.1732 4.98422 16.3525 5.04161 16.4835 5.17516L18.3619 7.07438C18.5884 7.30493 18.5853 7.67614 18.3548 7.90262C18.1242 8.12911 17.7535 8.12606 17.5271 7.89551L16.5876 6.9454V10.8779L24.1159 13.4556C24.3724 13.5424 24.5298 13.7897 24.513 14.0482L24.5135 14.0797V22.9471L27.6401 25.3018L27.4457 23.9769C27.3989 23.6565 27.6208 23.3584 27.9413 23.3117C28.2617 23.265 28.5593 23.4869 28.606 23.8073L28.994 26.45C29.0209 26.6363 28.9574 26.8156 28.836 26.9415C28.7477 27.0888 28.5953 27.1959 28.412 27.2203L25.7648 27.5778C25.4449 27.621 25.1498 27.396 25.1072 27.0756C25.064 26.7552 25.289 26.4606 25.6094 26.4175L26.9353 26.2387L23.9275 23.9729L16.3139 27.8419C16.2228 27.8971 16.1183 27.9262 16.0117 27.9262C15.8939 27.9262 15.7848 27.8916 15.6928 27.8322L8.16401 23.9043L5.06483 26.2387L6.39073 26.4175C6.71116 26.4606 6.93612 26.7552 6.89346 27.0756C6.8503 27.396 6.55526 27.621 6.23534 27.5778L3.58811 27.2203C3.40479 27.1959 3.25296 27.0888 3.16409 26.9415C3.10199 26.8771 3.05548 26.7993 3.0281 26.7141C3.00073 26.6289 2.99322 26.5385 3.00616 26.45L3.39413 23.8073C3.44085 23.4869 3.73842 23.265 4.05885 23.3117C4.37928 23.3584 4.6012 23.6565 4.55448 23.9769L4.35999 25.3018L7.48506 22.9481V13.9197C7.48506 13.6272 7.69936 13.3845 7.97866 13.3398V13.3398ZM16.1082 11.9509C16.0732 11.9575 16.0371 11.9611 16.0006 11.9611C15.9549 11.9611 15.9097 11.956 15.867 11.9458L9.70725 13.9964L16.0148 16.8574L22.3188 14.0786L16.1082 11.9509V11.9509ZM9.66256 20.2521C9.66256 20.0835 9.79917 19.9469 9.96776 19.9469C10.1364 19.9469 10.273 20.0835 10.273 20.2521L10.2714 21.5282C10.2719 21.5699 10.2765 21.6039 10.2867 21.6293L10.3024 21.6511L11.0646 22.0056C11.2175 22.0757 11.284 22.257 11.2139 22.4098C11.1433 22.5627 10.9621 22.6292 10.8092 22.5591L9.9896 22.1752C9.86366 22.097 9.77733 21.9904 9.72401 21.8604C9.68135 21.7568 9.66256 21.642 9.66358 21.5186L9.66256 20.2521ZM15.4242 26.3733V17.8766L8.65913 14.8084V22.844L15.4242 26.3733V26.3733ZM23.3395 14.9104L16.5988 17.8811V26.3834L23.3395 22.9582V14.9104V14.9104Z" fill="white"/>
</g>
<defs>
<clipPath id="clip0_2128_3024">
<rect width="26" height="22.9262" fill="white" transform="translate(3 5)"/>
</clipPath>
</defs>
</svg>
