<svg width="24" height="28" viewBox="0 0 24 28" fill="none" xmlns="http://www.w3.org/2000/svg">
<path d="M20 19.4401C18.9867 19.4401 18.08 19.8401 17.3867 20.4667L7.88 14.9334C7.94667 14.6267 8 14.3201 8 14.0001C8 13.6801 7.94667 13.3734 7.88 13.0667L17.28 7.58675C18 8.25342 18.9467 8.66675 20 8.66675C22.2133 8.66675 24 6.88008 24 4.66675C24 2.45341 22.2133 0.666748 20 0.666748C17.7867 0.666748 16 2.45341 16 4.66675C16 4.98675 16.0533 5.29341 16.12 5.60008L6.72 11.0801C6 10.4134 5.05333 10.0001 4 10.0001C1.78667 10.0001 0 11.7867 0 14.0001C0 16.2134 1.78667 18.0001 4 18.0001C5.05333 18.0001 6 17.5867 6.72 16.9201L16.2133 22.4667C16.1467 22.7467 16.1067 23.0401 16.1067 23.3334C16.1067 25.4801 17.8533 27.2267 20 27.2267C22.1467 27.2267 23.8933 25.4801 23.8933 23.3334C23.8933 21.1867 22.1467 19.4401 20 19.4401Z" fill="white"/>
</svg>
