<svg width="32" height="32" viewBox="0 0 32 32" fill="none" xmlns="http://www.w3.org/2000/svg">
<path fill-rule="evenodd" clip-rule="evenodd" d="M22.2266 17.5067C24.0532 18.7467 25.3332 20.4267 25.3332 22.6667V26.6667H29.3332C30.0666 26.6667 30.6666 26.0667 30.6666 25.3334V22.6667C30.6666 19.76 25.9066 18.04 22.2266 17.5067Z" fill="white"/>
<path d="M12.0013 16C14.9468 16 17.3346 13.6122 17.3346 10.6667C17.3346 7.72116 14.9468 5.33334 12.0013 5.33334C9.05578 5.33334 6.66797 7.72116 6.66797 10.6667C6.66797 13.6122 9.05578 16 12.0013 16Z" fill="white"/>
<path fill-rule="evenodd" clip-rule="evenodd" d="M19.9999 16C22.9466 16 25.3332 13.6133 25.3332 10.6667C25.3332 7.72001 22.9466 5.33334 19.9999 5.33334C19.3732 5.33334 18.7866 5.46668 18.2266 5.65334C19.3332 7.02668 19.9999 8.77334 19.9999 10.6667C19.9999 12.56 19.3332 14.3067 18.2266 15.68C18.7866 15.8667 19.3732 16 19.9999 16Z" fill="white"/>
<path fill-rule="evenodd" clip-rule="evenodd" d="M12.0007 17.3333C8.44065 17.3333 1.33398 19.12 1.33398 22.6667V25.3333C1.33398 26.0667 1.93398 26.6667 2.66732 26.6667H21.334C22.0673 26.6667 22.6673 26.0667 22.6673 25.3333V22.6667C22.6673 19.12 15.5606 17.3333 12.0007 17.3333Z" fill="white"/>
</svg>
