<svg width="32" height="32" viewBox="0 0 32 32" fill="none" xmlns="http://www.w3.org/2000/svg">
<path d="M14.92 1.81325L5.58667 5.95992C4.62667 6.38658 4 7.34659 4 8.39992V14.6666C4 22.0666 9.12 28.9866 16 30.6666C22.88 28.9866 28 22.0666 28 14.6666V8.39992C28 7.34659 27.3733 6.38658 26.4133 5.95992L17.08 1.81325C16.4 1.50659 15.6 1.50659 14.92 1.81325ZM12.3867 21.7199L8.93333 18.2666C8.41333 17.7466 8.41333 16.9066 8.93333 16.3866C9.45333 15.8666 10.2933 15.8666 10.8133 16.3866L13.3333 18.8933L21.1733 11.0533C21.6933 10.5333 22.5333 10.5333 23.0533 11.0533C23.5733 11.5733 23.5733 12.4133 23.0533 12.9333L14.2667 21.7199C13.76 22.2399 12.9067 22.2399 12.3867 21.7199Z" fill="white"/>
</svg>
