<svg width="32" height="32" viewBox="0 0 32 32" fill="none" xmlns="http://www.w3.org/2000/svg">
<path d="M16 3C8.8205 3 3 8.8205 3 16C3 23.1795 8.8205 29 16 29C23.1795 29 29 23.1795 29 16C29 8.8205 23.1795 3 16 3ZM16 4.5C22.3515 4.5 27.5 9.6485 27.5 16C27.5 22.3515 22.3515 27.5 16 27.5C9.6485 27.5 4.5 22.3515 4.5 16C4.5 9.6485 9.6485 4.5 16 4.5ZM16 6C12.5975 6 9.5902 7.71143 7.7832 10.3154C7.9282 10.3154 8.06738 10.3135 8.19238 10.3135C9.25288 10.3135 10.8975 10.1875 10.8975 10.1875C11.443 10.156 11.5045 10.9691 10.959 11.0361C10.959 11.0361 10.402 11.1301 9.79102 11.1611L13.4795 22.3477L15.6924 15.5605L14.125 11.1611C13.5795 11.1296 13.0488 11.0361 13.0488 11.0361C12.5033 11.0046 12.5649 10.156 13.1104 10.1875C13.1104 10.1875 14.7892 10.3135 15.7842 10.3135C16.8447 10.3135 18.4893 10.1875 18.4893 10.1875C19.0348 10.156 19.0963 10.9691 18.5508 11.0361C18.5508 11.0361 17.9898 11.1301 17.3828 11.1611L21.041 22.2842L22.0557 18.8281C22.5667 17.4846 22.8242 16.3533 22.8242 15.4658C22.8242 14.1853 22.3821 13.3252 21.9941 12.6377C21.4831 11.7852 21.0107 11.039 21.0107 10.1865C21.0107 9.31202 21.6027 8.51315 22.4717 8.38965C20.7257 6.90265 18.4675 6 16 6ZM24.9287 11.5225C24.9397 11.71 24.9443 11.9025 24.9443 12.1035C24.9443 13.152 24.7523 14.335 24.1758 15.8115L21.2588 24.4893C24.0993 22.7233 26 19.5835 26 16C26 14.389 25.6082 12.8715 24.9287 11.5225ZM6.83008 12.0215C6.29858 13.242 6 14.586 6 16C6 19.8645 8.20733 23.2173 11.4238 24.8818L6.83008 12.0215ZM16.1846 16.9111L13.25 25.6064C14.125 25.8574 15.0455 26 16 26C17.132 26 18.2159 25.8021 19.2314 25.4541L16.1846 16.9111Z" fill="white"/>
</svg>
