<svg width="28" height="28" viewBox="0 0 28 28" fill="none" xmlns="http://www.w3.org/2000/svg">
<path d="M13.9993 0.666626C6.63935 0.666626 0.666016 6.63996 0.666016 14C0.666016 21.36 6.63935 27.3333 13.9993 27.3333C21.3593 27.3333 27.3327 21.36 27.3327 14C27.3327 6.63996 21.3593 0.666626 13.9993 0.666626ZM15.8793 22.12V22.8933C15.8793 23.8666 15.0793 24.6666 14.106 24.6666H14.0927C13.1193 24.6666 12.3193 23.8666 12.3193 22.8933V22.0933C10.546 21.72 8.97268 20.7466 8.30602 19.1066C7.99935 18.3733 8.57268 17.56 9.37268 17.56H9.69268C10.186 17.56 10.586 17.8933 10.7727 18.36C11.1593 19.36 12.1727 20.0533 14.1193 20.0533C16.7327 20.0533 17.3193 18.7466 17.3193 17.9333C17.3193 16.8266 16.7327 15.7866 13.7593 15.08C10.4527 14.28 8.18602 12.92 8.18602 10.1866C8.18602 7.89329 10.0393 6.39996 12.3327 5.90663V5.10663C12.3327 4.13329 13.1327 3.33329 14.106 3.33329H14.1193C15.0927 3.33329 15.8927 4.13329 15.8927 5.10663V5.93329C17.7327 6.38663 18.8927 7.53329 19.3993 8.94663C19.666 9.67996 19.106 10.4533 18.3193 10.4533H17.9727C17.4793 10.4533 17.0793 10.1066 16.946 9.62663C16.6393 8.61329 15.7993 7.95996 14.1193 7.95996C12.1193 7.95996 10.9193 8.86662 10.9193 10.1466C10.9193 11.2666 11.786 12 14.4793 12.6933C17.1727 13.3866 20.0527 14.5466 20.0527 17.9066C20.026 20.3466 18.1993 21.68 15.8793 22.12Z" fill="white"/>
</svg>
