<svg width="26" height="26" viewBox="0 0 26 26" fill="none" xmlns="http://www.w3.org/2000/svg">
<path d="M20 14.0001C19.2667 14.0001 18.6667 14.6001 18.6667 15.3334V22.2934C18.6667 23.0267 18.0667 23.6267 17.3333 23.6267H4C3.26667 23.6267 2.66667 23.0267 2.66667 22.2934V8.66675C2.66667 7.93341 3.26667 7.33341 4 7.33341H10.6667C11.4 7.33341 12 6.73341 12 6.00008C12 5.26675 11.4 4.66675 10.6667 4.66675H2.66667C1.2 4.66675 0 5.86675 0 7.33341V23.3334C0 24.8001 1.2 26.0001 2.66667 26.0001H18.6667C20.1333 26.0001 21.3333 24.8001 21.3333 23.3334V15.3334C21.3333 14.6001 20.7333 14.0001 20 14.0001Z" fill="white"/>
<path d="M24.026 4.66675H21.3327V1.97341C21.3327 1.25341 20.746 0.666748 20.026 0.666748H19.986C19.2527 0.666748 18.666 1.25341 18.666 1.97341V4.66675H15.986C15.266 4.66675 14.6793 5.25341 14.666 5.97341C14.666 5.98675 14.666 6.00008 14.666 6.01342C14.666 6.74675 15.2527 7.33342 15.986 7.33342H18.666V10.0134C18.666 10.7334 19.2527 11.3334 19.986 11.3201C19.9993 11.3201 20.0127 11.3201 20.026 11.3201C20.746 11.3201 21.3327 10.7334 21.3327 10.0134V7.33342H24.026C24.746 7.33342 25.3327 6.74675 25.3327 6.02675V5.97341C25.3327 5.25341 24.746 4.66675 24.026 4.66675Z" fill="white"/>
<path d="M14.6673 10H6.66732C5.93398 10 5.33398 10.6 5.33398 11.3333C5.33398 12.0667 5.93398 12.6667 6.66732 12.6667H14.6673C15.4007 12.6667 16.0007 12.0667 16.0007 11.3333C16.0007 10.6 15.4007 10 14.6673 10Z" fill="white"/>
<path d="M14.6673 14H6.66732C5.93398 14 5.33398 14.6 5.33398 15.3333C5.33398 16.0667 5.93398 16.6667 6.66732 16.6667H14.6673C15.4007 16.6667 16.0007 16.0667 16.0007 15.3333C16.0007 14.6 15.4007 14 14.6673 14Z" fill="white"/>
<path d="M14.6673 18H6.66732C5.93398 18 5.33398 18.6 5.33398 19.3333C5.33398 20.0667 5.93398 20.6667 6.66732 20.6667H14.6673C15.4007 20.6667 16.0007 20.0667 16.0007 19.3333C16.0007 18.6 15.4007 18 14.6673 18Z" fill="white"/>
</svg>
