<svg width="24" height="27" viewBox="0 0 24 27" fill="none" xmlns="http://www.w3.org/2000/svg">
<path d="M21.3333 3.00004H15.76C15.2 1.45337 13.7333 0.333374 12 0.333374C10.2667 0.333374 8.8 1.45337 8.24 3.00004H2.66667C1.2 3.00004 0 4.20004 0 5.66671V24.3334C0 25.8 1.2 27 2.66667 27H21.3333C22.8 27 24 25.8 24 24.3334V5.66671C24 4.20004 22.8 3.00004 21.3333 3.00004ZM12 3.00004C12.7333 3.00004 13.3333 3.60004 13.3333 4.33337C13.3333 5.06671 12.7333 5.66671 12 5.66671C11.2667 5.66671 10.6667 5.06671 10.6667 4.33337C10.6667 3.60004 11.2667 3.00004 12 3.00004ZM13.3333 21.6667H6.66667C5.93333 21.6667 5.33333 21.0667 5.33333 20.3334C5.33333 19.6 5.93333 19 6.66667 19H13.3333C14.0667 19 14.6667 19.6 14.6667 20.3334C14.6667 21.0667 14.0667 21.6667 13.3333 21.6667ZM17.3333 16.3334H6.66667C5.93333 16.3334 5.33333 15.7334 5.33333 15C5.33333 14.2667 5.93333 13.6667 6.66667 13.6667H17.3333C18.0667 13.6667 18.6667 14.2667 18.6667 15C18.6667 15.7334 18.0667 16.3334 17.3333 16.3334ZM17.3333 11H6.66667C5.93333 11 5.33333 10.4 5.33333 9.66671C5.33333 8.93337 5.93333 8.33337 6.66667 8.33337H17.3333C18.0667 8.33337 18.6667 8.93337 18.6667 9.66671C18.6667 10.4 18.0667 11 17.3333 11Z" fill="white"/>
</svg>
