<svg width="30" height="30" viewBox="0 0 30 30" fill="none" xmlns="http://www.w3.org/2000/svg">
<path d="M14.9993 20.3333C17.946 20.3333 20.3327 17.9466 20.3327 15C20.3327 12.0533 17.946 9.66663 14.9993 9.66663C12.0527 9.66663 9.66602 12.0533 9.66602 15C9.66602 17.9466 12.0527 20.3333 14.9993 20.3333ZM3.07935 16.3333C3.69268 21.8933 8.10602 26.3066 13.666 26.92L13.666 28.3333C13.666 29.0666 14.266 29.6666 14.9993 29.6666C15.7327 29.6666 16.3327 29.0666 16.3327 28.3333L16.3327 26.92C21.8927 26.3066 26.306 21.8933 26.9193 16.3333L28.3327 16.3333C29.066 16.3333 29.666 15.7333 29.666 15C29.666 14.2666 29.066 13.6666 28.3327 13.6666L26.9193 13.6666C26.306 8.10663 21.8927 3.69329 16.3327 3.07996L16.3327 1.66663C16.3327 0.933295 15.7327 0.333295 14.9993 0.333295C14.266 0.333295 13.666 0.933296 13.666 1.66663L13.666 3.07996C8.10601 3.69329 3.69268 8.10663 3.07935 13.6666L1.66602 13.6666C0.932683 13.6666 0.332682 14.2666 0.332682 15C0.332682 15.7333 0.932683 16.3333 1.66602 16.3333L3.07935 16.3333ZM14.9993 5.66663C20.1593 5.66663 24.3327 9.83996 24.3327 15C24.3327 20.16 20.1593 24.3333 14.9993 24.3333C9.83935 24.3333 5.66602 20.16 5.66602 15C5.66602 9.83996 9.83935 5.66663 14.9993 5.66663Z" fill="white"/>
</svg>
