<svg width="32" height="32" viewBox="0 0 32 32" fill="none" xmlns="http://www.w3.org/2000/svg">
<path d="M15.9993 2.66675C8.63935 2.66675 2.66602 8.64008 2.66602 16.0001C2.66602 23.3601 8.63935 29.3334 15.9993 29.3334C23.3594 29.3334 29.3327 23.3601 29.3327 16.0001C29.3327 8.64008 23.3594 2.66675 15.9993 2.66675ZM17.8793 24.1201V24.8934C17.8793 25.8667 17.0793 26.6667 16.106 26.6667H16.0927C15.1193 26.6667 14.3193 25.8667 14.3193 24.8934V24.0934C12.546 23.7201 10.9727 22.7467 10.306 21.1067C9.99935 20.3734 10.5727 19.5601 11.3727 19.5601H11.6927C12.186 19.5601 12.586 19.8934 12.7727 20.3601C13.1593 21.3601 14.1727 22.0534 16.1193 22.0534C18.7327 22.0534 19.3193 20.7467 19.3193 19.9334C19.3193 18.8267 18.7327 17.7867 15.7593 17.0801C12.4527 16.2801 10.186 14.9201 10.186 12.1867C10.186 9.89342 12.0393 8.40008 14.3327 7.90675V7.10675C14.3327 6.13341 15.1327 5.33341 16.106 5.33341H16.1193C17.0927 5.33341 17.8927 6.13341 17.8927 7.10675V7.93341C19.7327 8.38675 20.8927 9.53341 21.3993 10.9467C21.666 11.6801 21.106 12.4534 20.3193 12.4534H19.9727C19.4793 12.4534 19.0793 12.1067 18.946 11.6267C18.6393 10.6134 17.7993 9.96008 16.1193 9.96008C14.1193 9.96008 12.9193 10.8667 12.9193 12.1467C12.9193 13.2667 13.786 14.0001 16.4793 14.6934C19.1727 15.3867 22.0527 16.5467 22.0527 19.9067C22.026 22.3467 20.1993 23.6801 17.8793 24.1201Z" fill="white"/>
</svg>
