<svg width="28" height="28" viewBox="0 0 28 28" fill="none" xmlns="http://www.w3.org/2000/svg">
<path d="M27.3193 3.33329C27.3193 1.86663 26.1327 0.666626 24.666 0.666626H3.33268C1.86602 0.666626 0.666016 1.86663 0.666016 3.33329V19.3333C0.666016 20.8 1.86602 22 3.33268 22H21.9993L27.3327 27.3333L27.3193 3.33329ZM20.666 16.6666H7.33268C6.59935 16.6666 5.99935 16.0666 5.99935 15.3333C5.99935 14.6 6.59935 14 7.33268 14H20.666C21.3993 14 21.9993 14.6 21.9993 15.3333C21.9993 16.0666 21.3993 16.6666 20.666 16.6666ZM20.666 12.6666H7.33268C6.59935 12.6666 5.99935 12.0666 5.99935 11.3333C5.99935 10.6 6.59935 9.99996 7.33268 9.99996H20.666C21.3993 9.99996 21.9993 10.6 21.9993 11.3333C21.9993 12.0666 21.3993 12.6666 20.666 12.6666ZM20.666 8.66663H7.33268C6.59935 8.66663 5.99935 8.06663 5.99935 7.33329C5.99935 6.59996 6.59935 5.99996 7.33268 5.99996H20.666C21.3993 5.99996 21.9993 6.59996 21.9993 7.33329C21.9993 8.06663 21.3993 8.66663 20.666 8.66663Z" fill="white"/>
</svg>
