<svg width="28" height="28" viewBox="0 0 28 28" fill="none" xmlns="http://www.w3.org/2000/svg">
<path d="M24.666 0.666748H3.33268C1.86602 0.666748 0.679349 1.86675 0.679349 3.33341L0.666016 27.3334L5.99935 22.0001H24.666C26.1327 22.0001 27.3327 20.8001 27.3327 19.3334V3.33341C27.3327 1.86675 26.1327 0.666748 24.666 0.666748ZM20.666 16.6667H7.33268C6.59935 16.6667 5.99935 16.0667 5.99935 15.3334C5.99935 14.6001 6.59935 14.0001 7.33268 14.0001H20.666C21.3993 14.0001 21.9993 14.6001 21.9993 15.3334C21.9993 16.0667 21.3993 16.6667 20.666 16.6667ZM20.666 12.6667H7.33268C6.59935 12.6667 5.99935 12.0667 5.99935 11.3334C5.99935 10.6001 6.59935 10.0001 7.33268 10.0001H20.666C21.3993 10.0001 21.9993 10.6001 21.9993 11.3334C21.9993 12.0667 21.3993 12.6667 20.666 12.6667ZM20.666 8.66675H7.33268C6.59935 8.66675 5.99935 8.06675 5.99935 7.33342C5.99935 6.60008 6.59935 6.00008 7.33268 6.00008H20.666C21.3993 6.00008 21.9993 6.60008 21.9993 7.33342C21.9993 8.06675 21.3993 8.66675 20.666 8.66675Z" fill="white"/>
</svg>
