<svg width="28" height="27" viewBox="0 0 28 27" fill="none" xmlns="http://www.w3.org/2000/svg">
<path d="M21.9993 18.3333V11.6666C21.9993 7.57331 19.8127 4.14665 15.9993 3.23998V2.33331C15.9993 1.22665 15.0927 0.333313 13.986 0.333313C12.8793 0.333313 11.9993 1.22665 11.9993 2.33331V3.23998C8.17265 4.14665 5.99932 7.55998 5.99932 11.6666V18.3333L4.26599 20.0533C3.42598 20.8933 4.01265 22.3333 5.19932 22.3333H22.7593C23.946 22.3333 24.546 20.8933 23.706 20.0533L21.9993 18.3333ZM13.986 26.3333C15.4527 26.3333 16.6527 25.1333 16.6527 23.6666H11.3193C11.3193 25.1333 12.506 26.3333 13.986 26.3333ZM7.02599 3.30665C7.58599 2.79998 7.59932 1.93331 7.06599 1.39998C6.55932 0.893313 5.73265 0.87998 5.21265 1.37331C2.93265 3.45331 1.35932 6.27998 0.852652 9.45331C0.732652 10.2666 1.35932 11 2.18599 11C2.82599 11 3.38599 10.5333 3.49265 9.89331C3.89265 7.30665 5.17265 4.99998 7.02599 3.30665ZM22.7993 1.37331C22.266 0.87998 21.4393 0.893313 20.9327 1.39998C20.3993 1.93331 20.426 2.78665 20.9727 3.29331C22.8127 4.98665 24.106 7.29331 24.506 9.87998C24.5993 10.52 25.1593 10.9866 25.8127 10.9866C26.626 10.9866 27.266 10.2533 27.1327 9.43998C26.626 6.27998 25.066 3.46665 22.7993 1.37331Z" fill="white"/>
</svg>
