<svg width="24" height="24" viewBox="0 0 24 24" fill="none" xmlns="http://www.w3.org/2000/svg">
<path d="M0 1C0 0.447717 0.447715 0 1 0H9.66667C10.219 0 10.6667 0.447715 10.6667 1V9.66667C10.6667 10.219 10.219 10.6667 9.66667 10.6667H1C0.447717 10.6667 0 10.219 0 9.66667V1ZM13.3333 1C13.3333 0.447717 13.781 0 14.3333 0H23C23.5523 0 24 0.447715 24 1V9.66667C24 10.219 23.5523 10.6667 23 10.6667H14.3333C13.7811 10.6667 13.3333 10.219 13.3333 9.66667V1ZM0 14.3333C0 13.7811 0.447715 13.3333 1 13.3333H9.66667C10.219 13.3333 10.6667 13.781 10.6667 14.3333V23C10.6667 23.5523 10.219 24 9.66667 24H1C0.447717 24 0 23.5523 0 23V14.3333ZM20 14.3333C20 13.781 19.5523 13.3333 19 13.3333H18.3333C17.781 13.3333 17.3333 13.781 17.3333 14.3333V17.3333H14.3333C13.781 17.3333 13.3333 17.781 13.3333 18.3333V19C13.3333 19.5523 13.781 20 14.3333 20H17.3333V23C17.3333 23.5523 17.781 24 18.3333 24H19C19.5523 24 20 23.5523 20 23V20H23C23.5523 20 24 19.5523 24 19V18.3333C24 17.781 23.5523 17.3333 23 17.3333H20V14.3333Z" fill="white"/>
</svg>
