<svg width="22" height="28" viewBox="0 0 22 28" fill="none" xmlns="http://www.w3.org/2000/svg">
<path d="M10.9993 21.9999L10.9993 19.6133C10.9993 19.0133 10.2793 18.7199 9.86601 19.1466L6.14602 22.8666C5.87935 23.1333 5.87935 23.5466 6.14602 23.8133L9.86602 27.5333C10.2793 27.9466 10.9993 27.6533 10.9993 27.0533L10.9993 24.6666C16.8927 24.6666 21.666 19.8932 21.666 13.9999C21.666 12.6132 21.3993 11.2799 20.906 10.0666C20.546 9.17325 19.3993 8.93325 18.7193 9.61325C18.3593 9.97325 18.2127 10.5199 18.4127 10.9999C18.7993 11.9199 18.9993 12.9466 18.9993 13.9999C18.9993 18.4132 15.4127 21.9999 10.9993 21.9999ZM3.27935 18.3866C3.63935 18.0266 3.78602 17.4666 3.58602 16.9999C3.21268 16.0666 2.99935 15.0533 2.99935 13.9999C2.99935 9.58658 6.58601 5.99992 10.9993 5.99992L10.9993 8.38658C10.9993 8.98658 11.7193 9.27992 12.1327 8.85325L15.8527 5.13325C16.1193 4.86658 16.1193 4.45325 15.8527 4.18658L12.1327 0.466584C11.7193 0.0532502 10.9993 0.346583 10.9993 0.933251L10.9993 3.33325C5.10601 3.33325 0.332682 8.10658 0.332682 13.9999C0.332682 15.3866 0.599349 16.7199 1.09268 17.9333C1.45268 18.8266 2.59935 19.0666 3.27935 18.3866Z" fill="white"/>
</svg>
