<svg width="32" height="32" viewBox="0 0 32 32" fill="none" xmlns="http://www.w3.org/2000/svg">
<path d="M27.6133 10.64L21.3733 4.4C21.12 4.14667 20.7733 4 20.4267 4H11.5733C11.2267 4 10.88 4.14667 10.64 4.38667L4.38667 10.64C4.14667 10.88 4 11.2267 4 11.5733V20.4133C4 20.7733 4.14667 21.1067 4.38667 21.36L10.6267 27.6C10.88 27.8533 11.2267 28 11.5733 28H20.4133C20.7733 28 21.1067 27.8533 21.36 27.6133L27.6 21.3733C27.8533 21.12 27.9867 20.7867 27.9867 20.4267V11.5733C28 11.2267 27.8533 10.88 27.6133 10.64ZM25.3333 19.8667L19.8667 25.3333H12.1333L6.66667 19.8667V12.1333L12.1333 6.66667H19.8667L25.3333 12.1333V19.8667Z" fill="white"/>
<path d="M15.9993 22.6667C16.7357 22.6667 17.3327 22.0697 17.3327 21.3333C17.3327 20.597 16.7357 20 15.9993 20C15.263 20 14.666 20.597 14.666 21.3333C14.666 22.0697 15.263 22.6667 15.9993 22.6667Z" fill="white"/>
<path d="M15.9993 9.33325C15.266 9.33325 14.666 9.93325 14.666 10.6666V17.3333C14.666 18.0666 15.266 18.6666 15.9993 18.6666C16.7327 18.6666 17.3327 18.0666 17.3327 17.3333V10.6666C17.3327 9.93325 16.7327 9.33325 15.9993 9.33325Z" fill="white"/>
</svg>
