<svg width="32" height="32" viewBox="0 0 32 32" fill="none" xmlns="http://www.w3.org/2000/svg">
<path d="M25.334 20.0001H6.66732C5.93398 20.0001 5.33398 19.4001 5.33398 18.6667C5.33398 17.9334 5.93398 17.3334 6.66732 17.3334H25.334C26.0673 17.3334 26.6673 17.9334 26.6673 18.6667C26.6673 19.4001 26.0673 20.0001 25.334 20.0001ZM25.334 22.6667H6.66732C5.93398 22.6667 5.33398 23.2667 5.33398 24.0001C5.33398 24.7334 5.93398 25.3334 6.66732 25.3334H25.334C26.0673 25.3334 26.6673 24.7334 26.6673 24.0001C26.6673 23.2667 26.0673 22.6667 25.334 22.6667ZM20.0007 14.6667L26.1073 10.3334C26.454 10.0801 26.6673 9.68008 26.6673 9.25341C26.6673 8.17341 25.4406 7.53341 24.5606 8.16008L20.0007 11.4001L13.334 6.66675L5.97398 11.1467C5.57398 11.4001 5.33398 11.8267 5.33398 12.2934C5.33398 13.3334 6.46732 13.9734 7.36065 13.4267L13.2273 9.85341L20.0007 14.6667Z" fill="white"/>
</svg>
