<svg width="28" height="28" viewBox="0 0 28 28" fill="none" xmlns="http://www.w3.org/2000/svg">
<path d="M14.0013 0.666748C6.66797 0.666748 0.667969 6.66675 0.667969 14.0001C0.667969 21.3334 6.66797 27.3334 14.0013 27.3334C21.3346 27.3334 27.3346 21.3334 27.3346 14.0001C27.3346 6.66675 21.3346 0.666748 14.0013 0.666748ZM18.7346 19.0667L13.2946 15.7201C12.8946 15.4801 12.6546 15.0534 12.6546 14.5867V8.33342C12.668 7.78675 13.1213 7.33342 13.668 7.33342C14.2146 7.33342 14.668 7.78675 14.668 8.33342V14.2667L19.788 17.3467C20.268 17.6401 20.428 18.2667 20.1346 18.7467C19.8413 19.2134 19.2146 19.3601 18.7346 19.0667Z" fill="white"/>
</svg>
