<svg width="28" height="28" viewBox="0 0 28 28" fill="none" xmlns="http://www.w3.org/2000/svg">
<path d="M22.4265 5.57328C21.9465 6.05328 21.9065 6.79995 22.3332 7.33328C24.2665 9.75995 25.2799 13.0799 24.3732 16.5599C23.3199 20.6266 20.1332 23.6666 16.0932 24.4799C9.2932 25.8266 3.3332 20.5733 3.3332 13.9999C3.3332 8.55995 7.39987 4.07995 12.6665 3.42661V6.11995C8.4932 6.82661 5.42653 10.7333 6.0932 15.2266C6.6132 18.7066 9.50653 21.5066 12.9999 21.9333C17.8532 22.5333 21.9999 18.7466 21.9999 13.9999C21.9999 12.3333 21.4932 10.7999 20.6265 9.51995C20.1732 8.85328 19.1999 8.81328 18.6265 9.37328L18.6132 9.38661C18.1599 9.83995 18.1199 10.5466 18.4665 11.0799C19.2665 12.3066 19.5865 13.8799 19.1199 15.5066C18.5999 17.3333 17.0665 18.7866 15.1999 19.1999C11.7332 19.9599 8.66653 17.3466 8.66653 13.9999C8.66653 11.5199 10.3732 9.45328 12.6665 8.85328V11.7066C11.8665 12.1733 11.3332 13.0133 11.3332 13.9999C11.3332 15.4666 12.5332 16.6666 13.9999 16.6666C15.4665 16.6666 16.6665 15.4666 16.6665 13.9999C16.6665 13.0133 16.1332 12.1599 15.3332 11.7066V1.61328C15.3332 1.09328 14.9065 0.666613 14.3865 0.666613C7.23987 0.399946 1.07987 6.07995 0.693199 13.1999C0.213199 21.9333 7.90653 28.9599 16.7065 27.0666C21.8799 25.9599 25.8799 21.9999 27.0399 16.8399C27.9865 12.6266 26.7732 8.62661 24.4132 5.67995C23.9199 5.05328 22.9865 5.01328 22.4265 5.57328Z" fill="white"/>
</svg>
