<svg width="80" height="81" viewBox="0 0 80 81" fill="none" xmlns="http://www.w3.org/2000/svg">
<path d="M38.5236 1.96833C42.8703 -1.30234 49.0496 -0.403514 52.2844 3.96995L52.6237 4.42862C54.5046 6.97166 57.4981 8.44956 60.6607 8.39659L61.2311 8.38703C66.6701 8.29593 71.141 12.6552 71.1873 18.0948L71.1922 18.6653C71.2191 21.8282 72.7722 24.7834 75.362 26.5995L75.8291 26.927C80.2829 30.0503 81.3375 36.2049 78.1777 40.6329L77.8463 41.0972C76.009 43.672 75.5285 46.9756 76.5562 49.9671L76.7415 50.5066C78.5089 55.6513 75.7446 61.2504 70.5855 62.9754L70.0445 63.1563C67.0447 64.1593 64.7141 66.5496 63.7871 69.5738L63.62 70.1193C62.0259 75.3202 56.4984 78.2251 51.3107 76.5883L50.7667 76.4166C47.7502 75.4649 44.4597 76.0287 41.9323 77.9305L41.4764 78.2736C37.1297 81.5442 30.9504 80.6454 27.7156 76.2719L27.3763 75.8133C25.4954 73.2702 22.5019 71.7923 19.3393 71.8453L18.7689 71.8549C13.3299 71.946 8.85903 67.5867 8.81268 62.1471L8.80782 61.5766C8.78086 58.4137 7.22779 55.4585 4.63804 53.6424L4.17095 53.3149C-0.282855 50.1916 -1.33753 44.037 1.82227 39.609L2.15366 39.1446C3.99099 36.5699 4.47153 33.2663 3.44384 30.2748L3.25848 29.7353C1.49109 24.5906 4.25544 18.9915 9.41446 17.2665L9.95552 17.0856C12.9553 16.0825 15.2859 13.6923 16.2129 10.6681L16.38 10.1226C17.9741 4.92168 23.5016 2.01674 28.6893 3.65357L29.2333 3.82524C32.2498 4.77701 35.5403 4.21315 38.0677 2.31135L38.5236 1.96833Z" fill="#0070B0"/>
<path d="M34.8678 32.0171V30.2524H37.942V38.3542H35.9665V32.0171H34.8678Z" fill="white"/>
<path d="M39.2846 36.9114V35.3798L42.7917 30.3634H44.9114V35.2688H45.8215V36.9114H44.9114V38.3542H43.0136V36.9114H39.2846ZM43.1468 32.4499L41.2823 35.2688H43.1468V32.4499Z" fill="white"/>
<path d="M28.7567 41.9878C29.578 41.9878 30.2957 42.1506 30.9098 42.4762C31.5239 42.8017 31.9974 43.2604 32.3304 43.8523C32.6707 44.4369 32.8409 45.1138 32.8409 45.8833C32.8409 46.6454 32.6707 47.3224 32.3304 47.9143C31.9974 48.5062 31.5202 48.9649 30.8987 49.2905C30.2846 49.616 29.5706 49.7788 28.7567 49.7788H25.8379V41.9878H28.7567ZM28.6346 48.1363C29.3523 48.1363 29.9109 47.9402 30.3105 47.5481C30.71 47.1559 30.9098 46.601 30.9098 45.8833C30.9098 45.1656 30.71 44.607 30.3105 44.2075C29.9109 43.808 29.3523 43.6082 28.6346 43.6082H27.7357V48.1363H28.6346Z" fill="white"/>
<path d="M38.7514 48.4026H35.8436L35.3775 49.7788H33.3909L36.2099 41.9878H38.4073L41.2263 49.7788H39.2175L38.7514 48.4026ZM38.2631 46.9377L37.2975 44.0854L36.3431 46.9377H38.2631Z" fill="white"/>
<path d="M48.7654 41.9878L46.0685 47.204V49.7788H44.1707V47.204L41.4738 41.9878H43.6269L45.1362 45.2507L46.6345 41.9878H48.7654Z" fill="white"/>
<path d="M52.349 49.8565C51.7793 49.8565 51.2687 49.764 50.8174 49.579C50.3661 49.3941 50.0035 49.1203 49.7298 48.7578C49.4634 48.3952 49.3229 47.9587 49.3081 47.4482H51.3279C51.3575 47.7367 51.4574 47.9587 51.6276 48.1141C51.7978 48.262 52.0197 48.336 52.2935 48.336C52.5746 48.336 52.7966 48.2731 52.9594 48.1474C53.1222 48.0142 53.2035 47.8329 53.2035 47.6036C53.2035 47.4112 53.137 47.2521 53.0038 47.1263C52.878 47.0005 52.7189 46.897 52.5265 46.8156C52.3416 46.7342 52.0752 46.6417 51.7275 46.5381C51.2244 46.3827 50.8137 46.2274 50.4956 46.072C50.1774 45.9166 49.9037 45.6873 49.6743 45.3839C49.4449 45.0806 49.3303 44.6847 49.3303 44.1964C49.3303 43.4713 49.5929 42.9053 50.1182 42.4984C50.6435 42.084 51.3279 41.8769 52.1714 41.8769C53.0297 41.8769 53.7215 42.084 54.2468 42.4984C54.7721 42.9053 55.0532 43.475 55.0902 44.2075H53.0371C53.0223 43.9559 52.9298 43.7599 52.7596 43.6193C52.5894 43.4713 52.3712 43.3973 52.1048 43.3973C51.8755 43.3973 51.6905 43.4602 51.5499 43.586C51.4093 43.7044 51.339 43.8782 51.339 44.1076C51.339 44.3592 51.4574 44.5552 51.6942 44.6958C51.9309 44.8364 52.3009 44.9881 52.804 45.1508C53.3071 45.321 53.7141 45.4838 54.0248 45.6392C54.343 45.7945 54.6167 46.0202 54.8461 46.3162C55.0754 46.6121 55.1901 46.9932 55.1901 47.4593C55.1901 47.9032 55.0754 48.3064 54.8461 48.669C54.6241 49.0315 54.2986 49.3201 53.8694 49.5346C53.4403 49.7492 52.9335 49.8565 52.349 49.8565Z" fill="white"/>
<g opacity="0.6">
<path d="M14.8671 22.7648L19.6587 25.4638L19.0013 26.631L16.1277 25.0124L18.3977 27.7026L17.8671 28.6446L14.3792 28.1006L17.2597 29.723L16.6022 30.8902L11.8105 28.1913L12.5872 26.8125L16.6619 27.3363L14.0943 24.1368L14.8671 22.7648Z" fill="white"/>
<path d="M22.7662 22.3016C22.391 22.6574 21.9634 22.8972 21.4836 23.0211C21.0075 23.1415 20.5293 23.1343 20.0489 22.9996C19.5687 22.8575 19.1436 22.5913 18.7735 22.2009C18.4033 21.8106 18.1619 21.3738 18.0491 20.8905C17.9402 20.4037 17.9584 19.9257 18.1039 19.4567C18.2531 18.9841 18.5154 18.57 18.8906 18.2142C19.2658 17.8584 19.6914 17.6204 20.1675 17.5001C20.6474 17.3761 21.1237 17.3851 21.5965 17.527C22.0731 17.6653 22.4964 17.9296 22.8665 18.32C23.2367 18.7103 23.4799 19.149 23.5963 19.6361C23.709 20.1193 23.6926 20.5955 23.5472 21.0645C23.4017 21.5335 23.1414 21.9458 22.7662 22.3016ZM21.9253 21.4148C22.2436 21.1129 22.397 20.766 22.3852 20.3741C22.3773 19.9786 22.208 19.6065 21.8774 19.2579C21.5432 18.9054 21.1806 18.7166 20.7897 18.6914C20.399 18.6588 20.0444 18.7935 19.7261 19.0953C19.4039 19.4008 19.245 19.7494 19.2494 20.1411C19.2575 20.5292 19.4305 20.9014 19.7683 21.2576C20.1025 21.6101 20.465 21.8026 20.8557 21.8352C21.2466 21.8603 21.6032 21.7202 21.9253 21.4148Z" fill="white"/>
<path d="M30.3742 17.1759L29.1894 17.8011L25.6248 15.8465L27.2078 18.8466L26.023 19.4718L23.4566 14.6078L24.6414 13.9827L28.2133 15.9511L26.623 12.9371L27.8079 12.312L30.3742 17.1759Z" fill="white"/>
<path d="M32.331 11.972L32.6071 13.0496L34.3449 12.6044L34.6016 13.6062L32.8637 14.0514L33.1631 15.2201L35.1286 14.7165L35.395 15.7562L32.1317 16.5922L30.7669 11.2648L34.0302 10.4288L34.2965 11.4685L32.331 11.972Z" fill="white"/>
<path d="M41.5364 9.84619L39.7401 13.5817L39.7927 15.3985L38.4536 15.4372L38.401 13.6205L36.3916 9.99511L37.9108 9.95114L39.0424 12.2226L40.0329 9.88971L41.5364 9.84619Z" fill="white"/>
<path d="M49.6624 14.3258C49.9443 14.4891 50.1382 14.7199 50.2443 15.0181C50.3519 15.3114 50.3564 15.6095 50.2576 15.9124C50.1152 16.3493 49.848 16.6468 49.4559 16.8046C49.0705 16.9591 48.6047 16.9474 48.0584 16.7693L45.6228 15.9754L47.3272 10.7467L49.6809 11.5139C50.2122 11.6871 50.5871 11.9439 50.8058 12.2843C51.0294 12.6263 51.0732 13.0059 50.9372 13.423C50.8369 13.7309 50.6716 13.9599 50.4414 14.1101C50.2161 14.2619 49.9564 14.3338 49.6624 14.3258ZM47.9113 13.2772L48.7456 13.5491C48.9541 13.6171 49.1276 13.6242 49.266 13.5704C49.4109 13.5133 49.5125 13.3953 49.5708 13.2166C49.6291 13.0378 49.6165 12.8827 49.533 12.7511C49.4545 12.6211 49.311 12.5222 49.1025 12.4542L48.2682 12.1823L47.9113 13.2772ZM48.17 15.6686C48.3836 15.7382 48.5628 15.7445 48.7078 15.6873C48.8593 15.6269 48.965 15.5048 49.0249 15.321C49.0848 15.1373 49.0697 14.9731 48.9795 14.8283C48.8943 14.6852 48.745 14.5789 48.5315 14.5093L47.6079 14.2082L47.2315 15.3627L48.17 15.6686Z" fill="white"/>
<path d="M54.6313 18.9967L52.8987 17.8962L52.1002 18.5398L50.9165 17.7879L55.5448 14.2126L56.8541 15.0443L55.5851 20.7534L54.3882 19.9931L54.6313 18.9967ZM54.8948 17.939L55.399 15.8741L53.7508 17.2123L54.8948 17.939Z" fill="white"/>
<path d="M58.5545 19.6723C58.9563 19.3068 59.3927 19.0687 59.8638 18.9579C60.3388 18.8437 60.8038 18.862 61.2588 19.013C61.7211 19.1643 62.1315 19.437 62.49 19.8311C62.9292 20.314 63.1777 20.8434 63.2355 21.4192C63.2932 21.995 63.1545 22.5412 62.8195 23.0577L61.8285 21.9681C61.9248 21.7324 61.9488 21.4987 61.9006 21.2672C61.8559 21.0396 61.7475 20.8311 61.5753 20.6418C61.2977 20.3365 60.9665 20.1859 60.5819 20.1899C60.1972 20.1938 59.8271 20.3574 59.4716 20.6807C59.1162 21.004 58.9183 21.3569 58.878 21.7395C58.8377 22.1221 58.9563 22.466 59.2339 22.7713C59.4061 22.9606 59.6034 23.0883 59.8258 23.1543C60.0517 23.2241 60.2866 23.2223 60.5303 23.1488L61.5213 24.2384C60.9754 24.5231 60.4186 24.6095 59.8508 24.4975C59.287 24.3821 58.7854 24.0828 58.3461 23.5999C57.9877 23.2058 57.7531 22.7732 57.6423 22.3021C57.5389 21.8314 57.5647 21.3667 57.7195 20.9082C57.8743 20.4497 58.1526 20.0378 58.5545 19.6723Z" fill="white"/>
<path d="M62.4868 29.6894L63.7938 26.9312L61.637 28.0474L61.0212 26.8577L65.9053 24.3299L66.5211 25.5196L64.3782 26.6287L67.3637 27.1476L68.0875 28.5461L64.7147 27.8924L63.2394 31.1435L62.4868 29.6894Z" fill="white"/>
</g>
<path opacity="0.6" d="M16.4853 54.288C14.309 50.4017 13.0684 45.9206 13.0684 41.1497C13.0684 38.0935 13.5775 35.1562 14.5155 32.418" stroke="white" stroke-linecap="round"/>
<path opacity="0.6" d="M63.9913 54.288C66.1676 50.4017 67.4082 45.9206 67.4082 41.1497C67.4082 38.0935 66.8991 35.1562 65.9611 32.418" stroke="white" stroke-linecap="round"/>
<g opacity="0.6">
<path d="M21.3028 58.2911C21.3584 58.0907 21.3513 57.8914 21.2814 57.6931C21.2189 57.4947 21.0975 57.3085 20.9172 57.1343C20.6054 56.8331 20.2559 56.6951 19.8685 56.7202C19.4847 56.7416 19.1277 56.9232 18.7975 57.265C18.4455 57.6293 18.2674 58.0092 18.2631 58.4044C18.2662 58.7996 18.4406 59.1641 18.7861 59.4979C19.0228 59.7266 19.2799 59.8588 19.5575 59.8946C19.8389 59.9341 20.126 59.8775 20.4189 59.7247L19.1963 58.5435L19.8821 57.8336L21.978 59.8585L21.1126 60.7543C20.8089 60.9257 20.471 61.0313 20.0986 61.0709C19.73 61.1142 19.3525 61.0727 18.9662 60.9464C18.5799 60.8201 18.2215 60.5973 17.8909 60.2779C17.5003 59.9005 17.2326 59.4785 17.0879 59.012C16.9506 58.5452 16.9425 58.0763 17.0637 57.6051C17.1886 57.1376 17.4398 56.7085 17.8172 56.3179C18.1946 55.9272 18.6147 55.6615 19.0777 55.5205C19.548 55.3794 20.017 55.3713 20.4845 55.4963C20.9557 55.6174 21.3866 55.8667 21.7772 56.2441C22.2505 56.7013 22.538 57.2005 22.6396 57.7417C22.745 58.2866 22.6544 58.8126 22.3676 59.3199L21.3028 58.2911Z" fill="white"/>
<path d="M25.2431 59.1549L23.5011 61.9462C23.3269 62.2253 23.2614 62.4831 23.3048 62.7195C23.3481 62.9558 23.5027 63.157 23.7685 63.3229C24.0344 63.4888 24.2852 63.5407 24.521 63.4785C24.7568 63.4163 24.9618 63.2457 25.136 62.9666L26.878 60.1753L28.0145 60.8846L26.2766 63.6692C26.0166 64.0857 25.7082 64.3826 25.3512 64.56C24.9943 64.7374 24.6195 64.8052 24.227 64.7633C23.8389 64.7243 23.461 64.59 23.0932 64.3605C22.7255 64.131 22.4397 63.8541 22.2357 63.5298C22.039 63.2038 21.9463 62.8443 21.9577 62.4513C21.9718 62.0538 22.1088 61.6468 22.3688 61.2303L24.1067 58.4457L25.2431 59.1549Z" fill="white"/>
<path d="M30.3375 66.6538L28.4097 65.9493L27.7672 66.7488L26.4501 66.2675L30.2066 61.785L31.6636 62.3174L31.645 68.1658L30.3132 67.6791L30.3375 66.6538ZM30.3687 65.5642L30.4196 63.4392L29.0957 65.099L30.3687 65.5642Z" fill="white"/>
<path d="M36.0046 68.9208L35.1793 66.6989L34.8616 66.6515L34.5556 68.7049L33.2306 68.5075L34.0412 63.068L36.265 63.3994C36.6938 63.4633 37.0468 63.5924 37.3241 63.7869C37.6065 63.9821 37.803 64.2226 37.9136 64.5084C38.0249 64.789 38.0567 65.0894 38.0089 65.4097C37.9551 65.7713 37.8036 66.0788 37.5547 66.3321C37.3109 66.5862 36.9813 66.743 36.5658 66.8025L37.5001 69.1437L36.0046 68.9208ZM35.0013 65.714L35.8227 65.8364C36.0654 65.8725 36.2551 65.8401 36.3916 65.739C36.5333 65.6386 36.6203 65.48 36.6526 65.263C36.6834 65.0564 36.6457 64.8845 36.5394 64.7472C36.4383 64.6107 36.2663 64.5243 36.0236 64.4881L35.2022 64.3657L35.0013 65.714Z" fill="white"/>
<path d="M42.683 68.0986L40.6335 68.2104L40.3579 69.1983L38.9577 69.2747L40.645 63.6749L42.1938 63.5905L44.4803 68.9734L43.0644 69.0506L42.683 68.0986ZM42.2825 67.0848L41.4923 65.1116L40.9292 67.1586L42.2825 67.0848Z" fill="white"/>
<path d="M50.827 67.3789L49.5359 67.7361L46.472 65.0641L47.3765 68.3335L46.0854 68.6906L44.619 63.3902L45.9102 63.033L48.9782 65.7201L48.0696 62.4356L49.3607 62.0785L50.827 67.3789Z" fill="white"/>
<path d="M53.758 59.9095L54.2413 60.8678L52.9403 61.524L54.9336 65.476L53.7374 66.0793L51.7442 62.1273L50.4432 62.7835L49.9599 61.8252L53.758 59.9095Z" fill="white"/>
<path d="M56.0883 59.5558L56.7489 60.4509L58.1923 59.3856L58.8064 60.2176L57.363 61.2829L58.0794 62.2536L59.7119 61.0487L60.3493 61.9123L57.6389 63.9127L54.3731 59.4878L57.0835 57.4874L57.7208 58.351L56.0883 59.5558Z" fill="white"/>
<path d="M59.4466 56.6958L60.242 57.4734L61.4961 56.1906L62.2356 56.9135L60.9815 58.1963L61.8441 59.0397L63.2626 57.5888L64.03 58.3391L61.6751 60.7479L57.7426 56.9034L60.0975 54.4946L60.865 55.2449L59.4466 56.6958Z" fill="white"/>
</g>
</svg>
